<svg width="70" height="70" viewBox="0 0 70 70" fill="none" xmlns="http://www.w3.org/2000/svg">
<path d="M48.2196 50.2727H23.59V19.7273H48.2196V22.2727H53.1455V12.0909C53.1455 9.29091 50.9289 7 48.2196 7H23.59C20.8807 7 18.6641 9.29091 18.6641 12.0909V57.9091C18.6641 60.7091 20.8807 63 23.59 63H48.2196C50.9289 63 53.1455 60.7091 53.1455 57.9091V47.7273H48.2196V50.2727ZM56.5444 28.9418L58.0715 32.4545L59.5985 28.9418L62.9974 27.3636L59.5985 25.7855L58.0715 22.2727L56.5444 25.7855L53.1455 27.3636L56.5444 28.9418Z" fill="#F8D45B"/>
<path d="M46.6667 23.3359L43.0208 31.3568L35 35.0026L43.0208 38.6484L46.6667 46.6693L50.3125 38.6484L58.3333 35.0026L50.3125 31.3568L46.6667 23.3359ZM61.25 37.9193L59.4416 41.9443L55.4166 43.7526L59.4416 45.5609L61.25 49.5859L63.0583 45.5609L67.0833 43.7526L63.0583 41.9443L61.25 37.9193Z" fill="#F8D45B"/>
</svg>
