<svg width="30" height="30" viewBox="0 0 30 30" fill="none" xmlns="http://www.w3.org/2000/svg">
<path d="M20.6667 21.5455H10.1111V8.45455H20.6667V9.54545H22.7778V5.18182C22.7778 3.98182 21.8278 3 20.6667 3H10.1111C8.95 3 8 3.98182 8 5.18182V24.8182C8 26.0182 8.95 27 10.1111 27H20.6667C21.8278 27 22.7778 26.0182 22.7778 24.8182V20.4545H20.6667V21.5455ZM24.2344 12.4036L24.8889 13.9091L25.5433 12.4036L27 11.7273L25.5433 11.0509L24.8889 9.54545L24.2344 11.0509L22.7778 11.7273L24.2344 12.4036Z" fill="#F8D45B"/>
<path d="M20 10L18.4375 13.4375L15 15L18.4375 16.5625L20 20L21.5625 16.5625L25 15L21.5625 13.4375L20 10ZM26.25 16.25L25.475 17.975L23.75 18.75L25.475 19.525L26.25 21.25L27.025 19.525L28.75 18.75L27.025 17.975L26.25 16.25Z" fill="#F8D45B"/>
</svg>
