<svg width="14" height="14" viewBox="0 0 14 14" fill="none" xmlns="http://www.w3.org/2000/svg">
<path d="M8 1C8 0.447812 8.44687 0 9 0H12.9719C13.1344 0 13.2656 0.026875 13.3813 0.0759375C13.4719 0.124375 13.6094 0.195937 13.7063 0.290625C13.7063 0.292187 13.7063 0.29375 13.7094 0.295C13.9031 0.489375 13.9719 0.743125 14 0.996875C14 0.998125 14 0.999062 14 1V5C14 5.55312 13.5531 6 13 6C12.4469 6 12 5.55312 12 5V3.41563L6.70625 8.70625C6.31563 9.09688 5.68437 9.09688 5.29375 8.70625C4.90312 8.31563 4.90312 7.68437 5.29375 7.29375L10.5844 2H9C8.44687 2 8 1.55219 8 1ZM0 3C0 1.89531 0.895313 1 2 1H5C5.55312 1 6 1.44781 6 2C6 2.55312 5.55312 3 5 3H2V12H11V9C11 8.44687 11.4469 8 12 8C12.5531 8 13 8.44687 13 9V12C13 13.1031 12.1031 14 11 14H2C0.895313 14 0 13.1031 0 12V3Z" fill="#5D5FEF"/>
</svg>
