<svg width="30" height="30" viewBox="0 0 30 30" fill="none" xmlns="http://www.w3.org/2000/svg">
<path d="M25.5 4H4.5C4.10218 4 3.72064 4.16556 3.43934 4.46026C3.15804 4.75496 3 5.15466 3 5.57143V24.4286C3 24.8453 3.15804 25.245 3.43934 25.5397C3.72064 25.8344 4.10218 26 4.5 26H25.5C25.8978 26 26.2794 25.8344 26.5607 25.5397C26.842 25.245 27 24.8453 27 24.4286V5.57143C27 5.15466 26.842 4.75496 26.5607 4.46026C26.2794 4.16556 25.8978 4 25.5 4ZM8.19 7.14286C8.63501 7.14286 9.07002 7.2811 9.44003 7.54011C9.81004 7.79911 10.0984 8.16725 10.2687 8.59796C10.439 9.02867 10.4836 9.50261 10.3968 9.95986C10.31 10.4171 10.0957 10.8371 9.78099 11.1668C9.46632 11.4964 9.06541 11.7209 8.62895 11.8119C8.1925 11.9028 7.7401 11.8561 7.32896 11.6777C6.91783 11.4993 6.56643 11.1972 6.31919 10.8096C6.07196 10.4219 5.94 9.9662 5.94 9.5C5.94 8.87485 6.17705 8.2753 6.59901 7.83325C7.02097 7.3912 7.59326 7.14286 8.19 7.14286ZM6 22.0714V18.85L10.5 14.0729C10.6405 13.9265 10.8306 13.8444 11.0287 13.8444C11.2269 13.8444 11.417 13.9265 11.5575 14.0729L13.5 16.0607L7.74 22.0714H6ZM24 22.0714H9.8625L14.535 17.1764L18.585 12.9336C18.7255 12.7872 18.9156 12.7051 19.1138 12.7051C19.3119 12.7051 19.502 12.7872 19.6425 12.9336L24 17.4986V22.0714Z" fill="#F8D45B"/>
</svg>
