<svg width="70" height="70" viewBox="0 0 70 70" fill="none" xmlns="http://www.w3.org/2000/svg">
<path d="M59.5 9.33594H10.5C9.57174 9.33594 8.6815 9.72225 8.02513 10.4099C7.36875 11.0975 7 12.0301 7 13.0026V57.0026C7 57.9751 7.36875 58.9077 8.02513 59.5953C8.6815 60.283 9.57174 60.6693 10.5 60.6693H59.5C60.4283 60.6693 61.3185 60.283 61.9749 59.5953C62.6313 58.9077 63 57.9751 63 57.0026V13.0026C63 12.0301 62.6313 11.0975 61.9749 10.4099C61.3185 9.72225 60.4283 9.33594 59.5 9.33594ZM19.11 16.6693C20.1484 16.6693 21.1634 16.9918 22.0267 17.5962C22.8901 18.2005 23.563 19.0595 23.9604 20.0645C24.3577 21.0695 24.4617 22.1754 24.2591 23.2423C24.0566 24.3092 23.5565 25.2892 22.8223 26.0584C22.0881 26.8275 21.1526 27.3514 20.1342 27.5636C19.1158 27.7758 18.0602 27.6669 17.1009 27.2506C16.1416 26.8343 15.3217 26.1294 14.7448 25.2249C14.1679 24.3204 13.86 23.2571 13.86 22.1693C13.86 20.7106 14.4131 19.3116 15.3977 18.2802C16.3823 17.2487 17.7176 16.6693 19.11 16.6693ZM14 51.5026V43.9859L24.5 32.8393C24.8279 32.4978 25.2714 32.3062 25.7337 32.3062C26.1961 32.3062 26.6396 32.4978 26.9675 32.8393L31.5 37.4776L18.06 51.5026H14ZM56 51.5026H23.0125L33.915 40.0809L43.365 30.1809C43.6929 29.8395 44.1364 29.6478 44.5988 29.6478C45.0611 29.6478 45.5046 29.8395 45.8325 30.1809L56 40.8326V51.5026Z" fill="#F8D45B"/>
</svg>
