<svg width="64" height="64" viewBox="0 0 64 64" fill="none" xmlns="http://www.w3.org/2000/svg">
<path d="M43.3333 16.2812V19.2188C43.3333 20.0266 42.6958 20.6875 41.9167 20.6875C41.1375 20.6875 40.5 20.0266 40.5 19.2188V16.2812C40.5 15.4734 41.1375 14.8125 41.9167 14.8125C42.6958 14.8125 43.3333 15.4734 43.3333 16.2812ZM44.75 6C47.0964 6 49 7.97271 49 10.4062V48.5938C49 51.0264 47.0964 53 44.75 53H36.25V45.6562C36.25 43.2236 34.3464 41.25 32 41.25C29.6536 41.25 27.75 43.2236 27.75 45.6562V53H19.25C16.9028 53 15 51.0264 15 48.5938V10.4062C15 7.97271 16.9028 6 19.25 6H44.75ZM20.6667 30.9688C20.6667 31.7766 21.3006 32.4375 22.0833 32.4375H24.9167C25.6958 32.4375 26.3333 31.7766 26.3333 30.9688V28.0312C26.3333 27.2234 25.6958 26.5625 24.9167 26.5625H22.0833C21.3006 26.5625 20.6667 27.2234 20.6667 28.0312V30.9688ZM30.5833 26.5625C29.8042 26.5625 29.1667 27.2234 29.1667 28.0312V30.9688C29.1667 31.7766 29.8042 32.4375 30.5833 32.4375H33.4167C34.1958 32.4375 34.8333 31.7766 34.8333 30.9688V28.0312C34.8333 27.2234 34.1958 26.5625 33.4167 26.5625H30.5833ZM37.6667 30.9688C37.6667 31.7766 38.3042 32.4375 39.0833 32.4375H41.9167C42.6958 32.4375 43.3333 31.7766 43.3333 30.9688V28.0312C43.3333 27.2234 42.6958 26.5625 41.9167 26.5625H39.0833C38.3042 26.5625 37.6667 27.2234 37.6667 28.0312V30.9688ZM29.875 11.875C29.0958 11.875 28.4583 12.5323 28.4583 13.3438V21.4219C28.4583 22.6428 29.4057 23.625 30.5833 23.625H33.4167C34.5943 23.625 35.5417 22.6428 35.5417 21.4219V19.2188C35.5417 18.4109 34.9042 17.75 34.125 17.75C33.3458 17.75 32.7083 18.4109 32.7083 19.2188V20.6875H31.2917V14.8125H34.125C34.9042 14.8125 35.5417 14.1552 35.5417 13.3438C35.5417 12.5323 34.9042 11.875 34.125 11.875H29.875ZM37.6667 19.2188C37.6667 21.6514 39.5703 23.625 41.9167 23.625C44.263 23.625 46.1667 21.6514 46.1667 19.2188V16.2812C46.1667 13.8477 44.263 11.875 41.9167 11.875C39.5703 11.875 37.6667 13.8477 37.6667 16.2812V19.2188ZM20.4285 12.5286C20.0823 11.9907 19.4368 11.7502 18.8392 11.9383C18.2424 12.1256 17.8333 12.6966 17.8333 13.3438V22.1562C17.8333 22.9641 18.4673 23.625 19.25 23.625C20.0327 23.625 20.6667 22.9641 20.6667 22.1562V18.1906L23.7382 22.9732C24.0844 23.5057 24.7307 23.7535 25.324 23.5607C25.926 23.3771 26.3333 22.808 26.3333 22.1562V13.3438C26.3333 12.5323 25.6958 11.875 24.9167 11.875C24.1375 11.875 23.5 12.5323 23.5 13.3438V17.3094L20.4285 12.5286Z" fill="#F8D45B"/>
</svg>
