<svg width="24" height="24" viewBox="0 0 24 24" fill="none" xmlns="http://www.w3.org/2000/svg">
<path fill-rule="evenodd" clip-rule="evenodd" d="M3 19.0005C2.44772 19.0005 2 18.5528 2 18.0005C2 17.4482 2.44772 17.0005 3 17.0005H21C21.5523 17.0005 22 17.4482 22 18.0005C22 18.5528 21.5523 19.0005 21 19.0005H3ZM3 13C2.44772 13 2 12.5522 2 12C2 11.4477 2.44772 11 3 11H21C21.5523 11 22 11.4477 22 12C22 12.5522 21.5523 13 21 13H3ZM3 7.0004C2.44772 7.0004 2 6.55269 2 6.0004C2 5.44812 2.44772 5.0004 3 5.0004H21C21.5523 5.0004 22 5.44812 22 6.0004C22 6.55269 21.5523 7.0004 21 7.0004H3Z" fill="#222222"/>
</svg>
