<svg width="22" height="24" viewBox="0 0 22 24" fill="none" xmlns="http://www.w3.org/2000/svg">
<path fill-rule="evenodd" clip-rule="evenodd" d="M11.025 0.75C8.20187 0.75 5.62937 1.6825 4.1075 2.44438C3.97 2.51313 3.84187 2.58062 3.7225 2.64562C3.48625 2.77437 3.285 2.89438 3.125 3L4.85625 5.54875L5.67125 5.87312C8.85625 7.48 13.1275 7.48 16.3131 5.87312L17.2381 5.39313L18.8756 3C18.5364 2.77875 18.1836 2.57898 17.8194 2.40187C16.3056 1.64812 13.795 0.75 11.025 0.75ZM6.99812 3.635C6.38507 3.52028 5.77957 3.36833 5.185 3.18C6.61062 2.54687 8.73562 1.875 11.0244 1.875C12.61 1.875 14.1094 2.1975 15.3494 2.60625C13.8962 2.81063 12.3456 3.1575 10.8681 3.58437C9.70562 3.92062 8.34687 3.88438 6.99812 3.635ZM16.9731 6.8L16.82 6.8775C13.3156 8.645 8.66812 8.645 5.16375 6.8775L5.01875 6.80375C-0.245003 12.5794 -4.26375 23.2481 11.025 23.2481C26.3125 23.2481 22.1956 12.38 16.9731 6.8ZM10.375 12C10.0435 12 9.72553 12.1317 9.49111 12.3661C9.25669 12.6005 9.125 12.9185 9.125 13.25C9.125 13.5815 9.25669 13.8995 9.49111 14.1339C9.72553 14.3683 10.0435 14.5 10.375 14.5V12ZM11.625 10.75V10.125H10.375V10.75C9.71195 10.75 9.07607 11.0134 8.60723 11.4822C8.13839 11.9511 7.875 12.587 7.875 13.25C7.875 13.913 8.13839 14.5489 8.60723 15.0178C9.07607 15.4866 9.71195 15.75 10.375 15.75V18.25C10.1165 18.2501 9.86432 18.17 9.65321 18.0208C9.44211 17.8716 9.28246 17.6606 9.19625 17.4169C9.14105 17.2606 9.02602 17.1326 8.87646 17.0611C8.7269 16.9896 8.55506 16.9804 8.39875 17.0356C8.24243 17.0908 8.11445 17.2059 8.04295 17.3554C7.97146 17.505 7.9623 17.6768 8.0175 17.8331C8.1899 18.3206 8.50917 18.7427 8.93137 19.0412C9.35357 19.3397 9.85792 19.5 10.375 19.5V20.125H11.625V19.5C12.288 19.5 12.9239 19.2366 13.3928 18.7678C13.8616 18.2989 14.125 17.663 14.125 17C14.125 16.337 13.8616 15.7011 13.3928 15.2322C12.9239 14.7634 12.288 14.5 11.625 14.5V12C12.1687 12 12.6319 12.3469 12.8044 12.8331C12.83 12.9127 12.8713 12.9863 12.9258 13.0496C12.9803 13.1129 13.047 13.1647 13.1219 13.2018C13.1968 13.2389 13.2783 13.2606 13.3618 13.2656C13.4452 13.2706 13.5288 13.2589 13.6075 13.231C13.6863 13.2032 13.7588 13.1598 13.8205 13.1035C13.8822 13.0472 13.9321 12.9791 13.967 12.9032C14.002 12.8273 14.0214 12.7451 14.024 12.6616C14.0267 12.5781 14.0126 12.4948 13.9825 12.4169C13.8101 11.9294 13.4908 11.5073 13.0686 11.2088C12.6464 10.9103 12.1421 10.75 11.625 10.75ZM11.625 15.75V18.25C11.9565 18.25 12.2745 18.1183 12.5089 17.8839C12.7433 17.6495 12.875 17.3315 12.875 17C12.875 16.6685 12.7433 16.3505 12.5089 16.1161C12.2745 15.8817 11.9565 15.75 11.625 15.75Z" fill="#F8D45B"/>
</svg>
