<svg width="70" height="70" viewBox="0 0 70 70" fill="none" xmlns="http://www.w3.org/2000/svg">
<path fill-rule="evenodd" clip-rule="evenodd" d="M35.0568 8.75C28.4695 8.75 22.467 10.9258 18.916 12.7035C18.5952 12.864 18.2962 13.0215 18.0177 13.1731C17.4664 13.4735 16.9968 13.7535 16.6235 14L20.6631 19.9471L22.5647 20.704C29.9964 24.4533 39.9627 24.4533 47.3958 20.704L49.5541 19.584L53.3749 14C52.5834 13.4837 51.7602 13.0176 50.9104 12.6044C47.3783 10.8456 41.5202 8.75 35.0568 8.75ZM25.6608 15.4817C24.2303 15.214 22.8175 14.8594 21.4302 14.42C24.7566 12.9427 29.7149 11.375 35.0554 11.375C38.7552 11.375 42.2537 12.1275 45.147 13.0813C41.7564 13.5581 38.1383 14.3675 34.6908 15.3635C31.9783 16.1481 28.8079 16.0635 25.6608 15.4817V15.4817ZM48.9358 22.8667L48.5785 23.0475C40.4016 27.1717 29.5574 27.1717 21.3806 23.0475L21.0422 22.8754C8.76016 36.3519 -0.616921 61.2456 35.0568 61.2456C70.7276 61.2456 61.1216 35.8867 48.9358 22.8667ZM33.5402 35C32.7666 35 32.0247 35.3073 31.4778 35.8543C30.9308 36.4013 30.6235 37.1431 30.6235 37.9167C30.6235 38.6902 30.9308 39.4321 31.4778 39.9791C32.0247 40.5261 32.7666 40.8333 33.5402 40.8333V35ZM36.4568 32.0833V30.625H33.5402V32.0833C31.9931 32.0833 30.5093 32.6979 29.4154 33.7919C28.3214 34.8858 27.7068 36.3696 27.7068 37.9167C27.7068 39.4638 28.3214 40.9475 29.4154 42.0415C30.5093 43.1354 31.9931 43.75 33.5402 43.75V49.5833C32.937 49.5835 32.3486 49.3966 31.856 49.0485C31.3634 48.7003 30.9909 48.208 30.7897 47.6394C30.6609 47.2747 30.3925 46.976 30.0436 46.8092C29.6946 46.6424 29.2936 46.621 28.9289 46.7498C28.5642 46.8786 28.2656 47.147 28.0987 47.496C27.9319 47.845 27.9105 48.2459 28.0393 48.6106C28.4416 49.7481 29.1866 50.7329 30.1717 51.4294C31.1568 52.126 32.3337 52.5 33.5402 52.5V53.9583H36.4568V52.5C38.0039 52.5 39.4876 51.8854 40.5816 50.7915C41.6756 49.6975 42.2902 48.2138 42.2902 46.6667C42.2902 45.1196 41.6756 43.6358 40.5816 42.5419C39.4876 41.4479 38.0039 40.8333 36.4568 40.8333V35C37.7256 35 38.8062 35.8094 39.2087 36.944C39.2684 37.1296 39.3647 37.3014 39.492 37.4491C39.6193 37.5968 39.7749 37.7176 39.9496 37.8041C40.1243 37.8907 40.3146 37.9413 40.5093 37.953C40.7039 37.9648 40.8989 37.9373 41.0828 37.8724C41.2666 37.8074 41.4356 37.7063 41.5797 37.5749C41.7237 37.4435 41.84 37.2845 41.9216 37.1074C42.0031 36.9303 42.0484 36.7386 42.0546 36.5437C42.0608 36.3488 42.0278 36.1547 41.9577 35.9727C41.5554 34.8353 40.8104 33.8505 39.8253 33.1539C38.8401 32.4574 37.6633 32.0834 36.4568 32.0833ZM36.4568 43.75V49.5833C37.2304 49.5833 37.9722 49.2761 38.5192 48.7291C39.0662 48.1821 39.3735 47.4402 39.3735 46.6667C39.3735 45.8931 39.0662 45.1513 38.5192 44.6043C37.9722 44.0573 37.2304 43.75 36.4568 43.75Z" fill="#F8D45B"/>
</svg>
