<svg width="16" height="14" viewBox="0 0 16 14" fill="none" xmlns="http://www.w3.org/2000/svg">
<path d="M4.39961 1.61355C4.08242 1.43828 3.6832 1.55203 3.5082 1.87003C3.21563 2.39531 3.0625 2.9914 3.0625 3.59296C3.0625 4.11332 3.17272 4.61672 3.39008 5.08648C3.50074 5.32648 3.73816 5.46738 3.98617 5.46738C4.07846 5.46738 4.17203 5.44773 4.26098 5.4067C4.59102 5.25547 4.7332 4.84258 4.58008 4.53632C4.44336 4.24101 4.375 3.92382 4.375 3.59296C4.375 3.21207 4.47199 2.83582 4.65527 2.50441C4.83164 2.18859 4.7168 1.78882 4.39961 1.61355ZM1.71199 0.0646065C1.26246 -0.118132 0.754141 0.100509 0.572852 0.547415C0.192691 1.4864 0 2.4798 0 3.47539C0 4.51992 0.192691 5.51523 0.572852 6.45312C0.710391 6.79492 1.03824 7 1.38441 7C1.49324 7 1.6048 6.98086 1.71199 6.93711C2.16016 6.7539 2.37645 6.24531 2.19488 5.79687C1.89957 5.06679 1.75 4.2957 1.75 3.5C1.75 2.70539 1.89954 1.9332 2.19488 1.20339C2.37645 0.755775 2.16016 0.245759 1.71199 0.0646065ZM15.1758 0.547415C14.9951 0.0987042 14.4859 -0.117312 14.0366 0.0645244C13.5885 0.245677 13.3722 0.755775 13.5538 1.20339C13.8496 1.9332 14 2.70566 14 3.5C14 4.29461 13.8505 5.06707 13.5551 5.77226C13.3738 6.24531 13.5898 6.7539 14.0383 6.93711C14.1449 6.98086 14.257 7 14.3664 7C14.7126 7 15.0402 6.79323 15.1777 6.45312C15.534 5.51523 15.75 4.51992 15.75 3.47539C15.75 2.4798 15.534 1.4864 15.1758 0.547415ZM11.4898 1.59222C11.1609 1.74431 11.0173 2.1339 11.1694 2.46285C11.3066 2.75898 11.375 3.07617 11.375 3.40703C11.375 3.7882 11.278 4.16418 11.0947 4.49558C10.9191 4.8125 11.0341 5.21254 11.3511 5.38754C11.4519 5.44307 11.5609 5.46957 11.6685 5.46957C11.8993 5.46957 12.1235 5.34734 12.2433 5.13133C12.5344 4.60468 12.6875 4.00859 12.6875 3.40703C12.6875 2.88668 12.5773 2.38355 12.3599 1.91351C12.209 1.58292 11.8152 1.44101 11.4898 1.59222ZM8.25234 1.78964C7.12305 1.55257 6.125 2.4098 6.125 3.5C6.125 4.14613 6.4791 4.70422 7 5.00718V13.1256C7 13.6087 7.39184 14.0006 7.875 14.0006C8.35816 14.0006 8.75 13.6087 8.75 13.1256V5.00664C9.38574 4.6364 9.7732 3.88664 9.57113 3.06031C9.41719 2.43113 8.88672 1.92253 8.25234 1.78964Z" fill="#4F4F4F"/>
</svg>
