<svg width="33" height="33" viewBox="0 0 33 33" fill="none" xmlns="http://www.w3.org/2000/svg">
<path d="M31.2238 0.482422H1.76472C1.05626 0.482422 0.483887 1.05479 0.483887 1.76325V31.2224C0.483887 31.9308 1.05626 32.5032 1.76472 32.5032H31.2238C31.9323 32.5032 32.5047 31.9308 32.5047 31.2224V1.76325C32.5047 1.05479 31.9323 0.482422 31.2238 0.482422ZM27.5254 9.82849H24.9678C22.9625 9.82849 22.5742 10.7811 22.5742 12.182V15.268H27.3613L26.7369 20.0991H22.5742V32.5032H17.583V20.1032H13.4083V15.268H17.583V11.7057C17.583 7.57102 20.1086 5.31756 23.799 5.31756C25.5682 5.31756 27.0851 5.44965 27.5294 5.50968V9.82849H27.5254Z" fill="#333333"/>
</svg>
