<svg width="28" height="23" viewBox="0 0 28 23" fill="none" xmlns="http://www.w3.org/2000/svg">
<path d="M12.5 16.2499C12.5 17.9233 12.9969 19.4796 13.8547 20.778L13.5969 21.0452C12.9875 21.6499 12.0078 21.6499 11.4453 21.0452L2.36141 11.6796C-0.260309 8.96083 -0.120153 4.46552 2.82969 1.93802C5.35626 -0.262765 9.2422 0.158642 11.5859 2.54692L12.5188 3.52989L13.4094 2.54692C15.7531 0.158642 19.5922 -0.262765 22.2125 1.93802C24.2235 3.69208 24.9078 6.3874 24.2656 8.78271C23.2016 8.28115 22.0063 7.9999 20.75 7.9999C16.1938 7.9999 12.5 11.6936 12.5 16.2499ZM14 16.2499C14 12.5233 17.0235 9.4999 20.75 9.4999C24.4766 9.4999 27.5 12.5233 27.5 16.2499C27.5 19.9765 24.4766 22.9999 20.75 22.9999C17.0235 22.9999 14 19.9765 14 16.2499ZM22.2875 12.4249L17.7875 15.7999C17.5953 15.9452 17.4735 16.1983 17.5906 16.428C17.6656 16.6577 17.8813 16.8124 18.125 16.8124H19.7938L18.3828 19.353C18.2563 19.5827 18.3031 19.8733 18.5047 20.0468C18.7063 20.2249 19.0016 20.1921 19.2125 20.0749L23.7125 16.6999C23.9047 16.5546 23.9844 16.3015 23.9094 16.0718C23.8344 15.8421 23.6188 15.6874 23.375 15.6874H21.7063L23.1172 13.1468C23.2438 12.9171 23.1969 12.6265 22.9953 12.4108C22.7938 12.2749 22.4985 12.2655 22.2875 12.4249Z" fill="#F8D45B"/>
</svg>
