<svg width="64" height="60" viewBox="0 0 64 60" fill="none" xmlns="http://www.w3.org/2000/svg">
<g clip-path="url(#clip0_684_144061)">
<path d="M29.1112 40.9373C29.1112 44.4236 30.0681 47.6658 31.7202 50.3709L31.2237 50.9275C30.05 52.1873 28.1632 52.1873 27.0799 50.9275L9.58497 31.4158C4.53573 25.7517 4.80566 16.3865 10.4868 11.1209C15.3528 6.53591 22.8369 7.41384 27.3507 12.3894L29.1473 14.4373L30.8625 12.3894C35.3764 7.41384 42.7702 6.53591 47.8167 11.1209C51.6896 14.7752 53.0077 20.3904 51.7709 25.3806C49.7216 24.3357 47.4195 23.7498 45.0001 23.7498C36.2251 23.7498 29.1112 31.4451 29.1112 40.9373ZM32 40.9373C32 33.1736 37.823 26.8748 45.0001 26.8748C52.1771 26.8748 58.0001 33.1736 58.0001 40.9373C58.0001 48.701 52.1771 54.9998 45.0001 54.9998C37.823 54.9998 32 48.701 32 40.9373ZM47.9612 32.9685L39.2945 39.9998C38.9244 40.3025 38.6896 40.8299 38.9153 41.3084C39.0598 41.7869 39.4751 42.1092 39.9445 42.1092H43.1584L40.441 47.4021C40.1973 47.8807 40.2876 48.4861 40.6758 48.8475C41.0639 49.2185 41.6327 49.1502 42.0389 48.906L50.7056 41.8748C51.0758 41.5721 51.2292 41.0447 51.0848 40.5662C50.9403 40.0877 50.5251 39.7654 50.0556 39.7654H46.8417L49.5591 34.4724C49.8028 33.9939 49.7126 33.3885 49.3244 32.9392C48.9362 32.656 48.3674 32.6365 47.9612 32.9685Z" fill="#F8D45B"/>
</g>
<defs>
<clipPath id="clip0_684_144061">
<rect width="52" height="50" fill="white" transform="translate(6 5)"/>
</clipPath>
</defs>
</svg>
