<svg width="33" height="33" viewBox="0 0 33 33" fill="none" xmlns="http://www.w3.org/2000/svg">
<path d="M31.2016 0.482422H1.74244C1.03398 0.482422 0.461609 1.05479 0.461609 1.76325V31.2224C0.461609 31.9308 1.03398 32.5032 1.74244 32.5032H31.2016C31.91 32.5032 32.4824 31.9308 32.4824 31.2224V1.76325C32.4824 1.05479 31.91 0.482422 31.2016 0.482422ZM9.95977 27.7681H5.20869V12.4862H9.95977V27.7681ZM7.58623 10.3969C7.04158 10.3969 6.50917 10.2353 6.05631 9.93276C5.60345 9.63017 5.25049 9.20008 5.04206 8.6969C4.83364 8.19371 4.7791 7.64001 4.88536 7.10583C4.99161 6.57165 5.25389 6.08097 5.63901 5.69585C6.02413 5.31072 6.51481 5.04845 7.049 4.94219C7.58318 4.83594 8.13687 4.89047 8.64006 5.0989C9.14325 5.30733 9.57333 5.66029 9.87592 6.11315C10.1785 6.566 10.34 7.09842 10.34 7.64307C10.336 9.16405 9.10322 10.3969 7.58623 10.3969ZM27.7473 27.7681H23.0002V20.3353C23.0002 18.5622 22.9682 16.2847 20.5306 16.2847C18.061 16.2847 17.6808 18.2139 17.6808 20.2072V27.7681H12.9377V12.4862H17.4927V14.5756H17.5567C18.1891 13.3748 19.7381 12.106 22.0516 12.106C26.8627 12.106 27.7473 15.272 27.7473 19.3867V27.7681Z" fill="#333333"/>
</svg>
