<svg width="173" height="48" viewBox="0 0 173 48" fill="none" xmlns="http://www.w3.org/2000/svg">
<g clip-path="url(#clip0_107_2149)">
<path d="M2.26261 5.10025L0.24571 3.55859C0.2318 4.61573 0.2318 7.12411 0.206299 8.19284L2.26261 9.96864C2.23711 8.56376 2.26261 5.10025 2.26261 5.10025Z" fill="#E49C0E"/>
<path d="M5.10022 26.5767C6.10658 26.3699 7.00397 25.8055 7.62625 24.988C8.24853 24.1706 8.55357 23.1553 8.48491 22.1302C8.48491 21.3397 8.42463 18.1613 8.42463 18.1613L6.29181 16.3252C6.29181 16.3252 6.21995 22.2253 6.21763 22.3528C6.2172 22.6221 6.16017 22.8883 6.05023 23.1342C5.94028 23.3801 5.77989 23.6001 5.57945 23.78C5.379 23.9599 5.14298 24.0956 4.8867 24.1785C4.63041 24.2613 4.35958 24.2893 4.09177 24.2607C3.63733 24.2047 3.21857 23.986 2.91297 23.645C2.60738 23.304 2.43565 22.8639 2.42956 22.4061C2.42956 20.0043 2.38551 16.2673 2.33683 13.84C2.33683 13.5595 2.32292 13.2489 2.31596 12.9127L6.29181 16.3252V13.4459L2.26264 9.96851C2.28119 11.0488 2.30205 12.208 2.31596 12.9058L0.155325 11.0511C0.0834581 14.6955 0 18.9588 0 22.4014C0.00117776 23.0317 0.142008 23.6539 0.412362 24.2232C0.682716 24.7926 1.07588 25.2949 1.56357 25.6942C2.05126 26.0934 2.62136 26.3796 3.23288 26.5322C3.8444 26.6848 4.48213 26.7 5.10022 26.5767Z" fill="#E49C0E"/>
<path d="M28.8441 3.56543L26.8271 5.10013C26.8271 5.10013 26.8526 8.55669 26.8271 9.95693L28.8835 8.18576C28.8696 7.12399 28.858 4.61561 28.8441 3.56543Z" fill="#E49C0E"/>
<path d="M20.6049 22.1302C20.5673 22.6986 20.6445 23.2687 20.8318 23.8066C21.0192 24.3445 21.3129 24.8393 21.6954 25.2613C22.078 25.6833 22.5416 26.024 23.0586 26.2632C23.5756 26.5023 24.1354 26.6349 24.7047 26.6531C25.274 26.6713 25.8412 26.5747 26.3724 26.3691C26.9037 26.1636 27.3881 25.8532 27.7968 25.4564C28.2056 25.0597 28.5303 24.5848 28.7516 24.0599C28.973 23.5351 29.0864 22.9711 29.0852 22.4014C29.0852 18.9588 29.0064 14.6955 28.9345 11.0419L26.7739 12.8965C26.7878 12.201 26.8086 11.0419 26.8272 9.95923L22.798 13.4459V16.3252L26.7739 12.9011C26.7739 13.2442 26.7599 13.5549 26.753 13.8284C26.7043 16.2557 26.6579 19.9927 26.6603 22.3945C26.6542 22.8523 26.4824 23.2924 26.1768 23.6334C25.8713 23.9744 25.4525 24.1931 24.9981 24.2491C24.7302 24.2777 24.4594 24.2497 24.2031 24.1669C23.9468 24.0841 23.7108 23.9483 23.5104 23.7684C23.3099 23.5885 23.1495 23.3685 23.0396 23.1226C22.9296 22.8767 22.8726 22.6105 22.8722 22.3412C22.8722 22.2113 22.798 16.3136 22.798 16.3136L20.6652 18.1497C20.6652 18.1497 20.6142 21.3397 20.6049 22.1302Z" fill="#E49C0E"/>
<path d="M8.42464 18.1637L9.71592 19.2742C10.8782 20.2744 11.9081 21.4189 12.7807 22.6797C12.6227 23.6193 12.4075 24.5484 12.1362 25.4617C11.2089 28.5149 9.89675 30.0727 8.23454 30.0982C7.79973 30.1041 7.37192 29.9885 6.99923 29.7645C6.62653 29.5404 6.32374 29.2169 6.1249 28.8301C5.94184 28.885 5.75614 28.9306 5.56852 28.9669C5.13743 29.0547 4.69862 29.099 4.25869 29.0991C4.05044 29.0996 3.8423 29.0895 3.63507 29.0689C3.91741 30.0627 4.51601 30.9373 5.34015 31.5602C6.16428 32.1831 7.16902 32.5203 8.20208 32.5208C11.7769 32.5208 13.5759 29.0689 14.4614 26.1711C14.4916 26.0737 14.5217 25.974 14.5495 25.8743C14.5774 25.974 14.6075 26.0737 14.6376 26.1711C16.2303 31.4197 18.9195 32.5208 20.897 32.5208C21.9296 32.5198 22.9339 32.1823 23.7575 31.5595C24.5812 30.9366 25.1794 30.0623 25.4617 29.0689C25.2568 29.0895 25.0509 29.0996 24.845 29.0991C24.4051 29.0993 23.9662 29.055 23.5352 28.9669C23.3451 28.9298 23.1573 28.8835 22.9718 28.8301C22.7736 29.2174 22.471 29.5414 22.0982 29.7655C21.7253 29.9896 21.2972 30.1049 20.8622 30.0982C19.2 30.0774 17.8879 28.5195 16.9605 25.4617C16.6905 24.548 16.4753 23.6191 16.3161 22.6797C17.1901 21.4186 18.2207 20.2735 19.3831 19.2719L20.6744 18.1614L20.7278 15.2241L17.3732 18.1035L16.1097 19.193C16.0356 19.2556 15.966 19.3206 15.8965 19.3878C15.7782 17.918 15.7643 16.6708 15.7643 15.9289C15.7643 14.4313 16.119 12.6833 16.4598 11.0026C17.2225 7.26085 18.0107 3.39164 15.398 0.832263L14.5426 0L13.6964 0.832263C11.0814 3.38237 11.8696 7.26085 12.6323 11.0026C12.9777 12.688 13.3278 14.4313 13.3278 15.9289C13.3278 16.6684 13.3046 17.918 13.1864 19.3878C13.1168 19.3206 13.0473 19.2556 12.9731 19.193L11.7096 18.1035L8.37132 15.2265L8.42464 18.1637Z" fill="#E49C0E"/>
<path d="M29.0851 34.0925V28.7605L29.0643 28.779C28.3183 29.3836 27.7158 30.1461 27.3001 31.0116C26.8844 31.8771 26.6658 32.8241 26.6602 33.7842V34.0786H2.42492V33.7888C2.42091 32.8279 2.2036 31.8798 1.78866 31.013C1.37372 30.1463 0.771509 29.3825 0.0255011 28.7767L0 28.7466V41.8217L0.0255011 41.7985C0.769878 41.1935 1.37093 40.4311 1.78541 39.5661C2.19989 38.701 2.41751 37.7549 2.4226 36.7957V36.5059L2.39942 36.485H26.6834L26.6625 36.5059V36.791C26.6678 37.7516 26.8862 38.699 27.3019 39.5649C27.7176 40.4308 28.3203 41.1937 29.0666 41.7985L29.0875 41.8147V36.4827V34.0925H29.0851Z" fill="#E49C0E"/>
<path d="M7.28174 43.4166H8.49188C11.2738 43.4166 13.5643 46.5695 13.5921 46.5996L14.5913 47.9906L15.5696 46.5973C15.5928 46.5649 17.8206 43.4236 20.6559 43.4236H21.8684V38.1008H7.28174V43.4166ZM9.70434 40.5234H19.4411V41.11C17.2782 41.5249 15.5673 42.9646 14.5727 44.024C13.5596 42.9715 11.8418 41.5342 9.70434 41.1146V40.5234Z" fill="#E49C0E"/>
<path d="M46.7157 24.6086C48.2921 24.6086 49.5285 24.1774 50.4249 23.315C51.3213 22.4526 51.7703 21.1389 51.7718 19.3739V10.5645H49.2959V19.3948C49.2959 20.5076 49.0865 21.3174 48.6677 21.8243C48.2481 22.3297 47.5989 22.5824 46.7157 22.5824C45.8324 22.5824 45.2065 22.3297 44.7892 21.8243C44.3719 21.319 44.1656 20.5076 44.1656 19.3948V10.5691H41.6896V19.3786C41.6896 21.1404 42.1371 22.4541 43.0319 23.3196C43.9268 24.1851 45.1547 24.6148 46.7157 24.6086Z" fill="#1E1E1E"/>
<path d="M59.093 18.1034L63.2033 14.4428H60.1362L56.5545 17.6003V9.74365H54.2107V24.4021H56.5545V20.3614L57.5212 19.4967L60.5489 24.4021H63.1569L59.093 18.1034Z" fill="#1E1E1E"/>
<path d="M69.8799 14.2736C69.4125 14.2619 68.9473 14.3406 68.5098 14.5054C68.125 14.6584 67.7766 14.8906 67.4874 15.187C67.3159 15.3649 67.165 15.5617 67.0377 15.7735V14.4428H64.571V24.4114H67.0377V19.4503C67.0385 19.1007 67.0829 18.7526 67.1698 18.414C67.2557 18.0719 67.4017 17.7477 67.601 17.4566C67.8077 17.1593 68.0871 16.9199 68.4124 16.7611C68.8101 16.5776 69.2451 16.4894 69.6829 16.5038C69.9414 16.4957 70.1996 16.5286 70.4479 16.6011C70.5797 16.6415 70.7065 16.6967 70.8258 16.7657L71.2778 14.5054C71.1392 14.4394 70.9927 14.3911 70.842 14.3617C70.526 14.2941 70.203 14.2645 69.8799 14.2736Z" fill="#1E1E1E"/>
<path d="M78.8493 18.1428C78.0605 18.2928 77.2642 18.4004 76.4638 18.465C75.745 18.5227 75.0375 18.6787 74.3612 18.9287C73.7798 19.1339 73.2615 19.4861 72.8566 19.951C72.473 20.4261 72.2745 21.024 72.2979 21.6341C72.2819 22.2057 72.4501 22.7674 72.7778 23.2361C73.1124 23.6941 73.5709 24.0472 74.0992 24.2538C74.7233 24.4996 75.3898 24.6193 76.0605 24.6062C76.6466 24.6117 77.2305 24.5337 77.7945 24.3743C78.2875 24.2352 78.7527 24.0117 79.1693 23.7136C79.3372 23.591 79.4925 23.452 79.6329 23.2986C79.659 23.4342 79.693 23.5682 79.7349 23.6997C79.7922 23.8539 79.8628 24.0028 79.9459 24.1448C79.9982 24.2365 80.0596 24.3227 80.129 24.4021H82.5679C82.4904 24.3153 82.4214 24.2214 82.3615 24.1216C82.2621 23.9634 82.1842 23.7927 82.1297 23.6139C82.0757 23.4131 82.0423 23.2072 82.03 22.9996C82.0161 22.7678 82.0068 22.5359 82.0068 22.3041V17.7626C82.0309 17.0592 81.8013 16.3705 81.36 15.8222C80.9033 15.2881 80.3105 14.8876 79.6445 14.6631C78.8885 14.399 78.0922 14.2688 77.2915 14.2782C76.4502 14.2647 75.6138 14.4078 74.8248 14.7001C74.1509 14.9454 73.558 15.3722 73.1116 15.9335C72.686 16.5058 72.4663 17.2051 72.488 17.9179H74.9268C74.9073 17.673 74.953 17.4273 75.0593 17.2058C75.1656 16.9842 75.3286 16.7948 75.5319 16.6568C75.9353 16.3909 76.5148 16.258 77.2706 16.258C77.8494 16.2257 78.4263 16.3482 78.9421 16.6127C79.1222 16.7111 79.2721 16.8568 79.3754 17.0341C79.4788 17.2115 79.5317 17.4136 79.5286 17.6189V17.6374C79.5286 17.8716 79.3037 18.0385 78.8493 18.1428ZM79.5448 19.7146V20.1782C79.5664 20.6793 79.4248 21.1739 79.1414 21.5878C78.8733 21.9541 78.5056 22.2358 78.082 22.3992C77.6283 22.5787 77.1441 22.6684 76.6562 22.6634C76.1649 22.6962 75.6744 22.5884 75.2421 22.3528C75.0902 22.2525 74.9674 22.1141 74.886 21.9513C74.8046 21.7885 74.7675 21.6071 74.7784 21.4255C74.7674 21.2326 74.8149 21.041 74.9146 20.8755C75.0142 20.7101 75.1615 20.5786 75.3371 20.4982C75.865 20.2728 76.4285 20.1425 77.0017 20.1133C77.5766 20.0577 78.1469 19.9812 78.7079 19.8815C79.0093 19.8444 79.2852 19.7818 79.5471 19.7053L79.5448 19.7146Z" fill="#1E1E1E"/>
<path d="M86.6944 14.4429H84.2556V24.4022H86.6944V14.4429Z" fill="#1E1E1E"/>
<path d="M84.4388 12.2869C84.7432 12.5047 85.1101 12.6177 85.4843 12.6092C85.8541 12.6171 86.2164 12.5039 86.5159 12.2869C86.6589 12.1843 86.774 12.0477 86.8509 11.8894C86.9278 11.7312 86.964 11.5563 86.9564 11.3805C86.9634 11.2071 86.9267 11.0347 86.8498 10.8792C86.7728 10.7236 86.658 10.5899 86.5159 10.4903C86.2156 10.275 85.8537 10.1628 85.4843 10.1703C85.1105 10.1621 84.744 10.2743 84.4388 10.4903C84.2957 10.5892 84.1798 10.7227 84.102 10.8783C84.0242 11.0339 83.987 11.2066 83.9936 11.3805C83.9863 11.5567 84.0232 11.732 84.101 11.8903C84.1787 12.0486 84.2948 12.185 84.4388 12.2869Z" fill="#1E1E1E"/>
<path d="M96.1739 19.9858V24.4021H98.6498V18.1011C98.6663 17.4027 98.5236 16.7098 98.2325 16.0749C97.967 15.5136 97.5346 15.0481 96.9945 14.7419C96.3733 14.4142 95.6773 14.2543 94.9753 14.2782C94.2311 14.2719 93.4987 14.4648 92.8541 14.8369C92.3621 15.1209 91.9343 15.5037 91.5976 15.9613V14.4428H89.1309V24.4114H91.5976V19.084C91.5875 18.6075 91.6959 18.1359 91.9129 17.7116C92.1112 17.3257 92.4109 17.0011 92.7799 16.7727C93.1612 16.542 93.6001 16.4238 94.0457 16.4319C94.4933 16.4067 94.9384 16.5139 95.3254 16.7402C95.6306 16.943 95.8597 17.2415 95.9768 17.5887C96.1109 17.9794 96.176 18.3905 96.1692 18.8035V19.9858H96.1739Z" fill="#1E1E1E"/>
<path d="M105.927 24.6179C106.638 24.6316 107.348 24.5386 108.032 24.3421C108.596 24.1765 109.127 23.9163 109.604 23.5724C110.007 23.2792 110.349 22.9108 110.612 22.4874C110.844 22.1173 110.987 21.6983 111.029 21.2634H108.572C108.549 21.4376 108.487 21.6043 108.389 21.7502C108.268 21.9354 108.11 22.0933 107.925 22.2139C107.686 22.3709 107.421 22.484 107.142 22.5477C106.77 22.6352 106.39 22.6764 106.008 22.6706C105.438 22.6889 104.872 22.5544 104.371 22.2811C103.923 22.0204 103.568 21.6266 103.354 21.1544C103.22 20.8592 103.126 20.5473 103.075 20.2271H111.127C111.144 20.1182 111.154 20.0082 111.155 19.8979C111.155 19.7472 111.155 19.6081 111.155 19.476C111.176 18.5316 110.957 17.5974 110.517 16.7613C110.108 15.9919 109.487 15.3562 108.727 14.9298C107.871 14.477 106.914 14.2511 105.945 14.2738C104.978 14.2544 104.022 14.4784 103.163 14.9252C102.376 15.3418 101.722 15.9706 101.274 16.7404C100.807 17.5658 100.571 18.5022 100.593 19.4505C100.575 20.3883 100.807 21.3139 101.265 22.1327C101.704 22.9066 102.352 23.5407 103.136 23.9619C103.996 24.4131 104.956 24.6388 105.927 24.6179ZM103.377 17.6793C103.601 17.2211 103.957 16.8401 104.399 16.5851C104.872 16.3251 105.406 16.1939 105.945 16.2049C106.469 16.1848 106.988 16.3065 107.448 16.5573C107.824 16.7754 108.13 17.0973 108.329 17.4846C108.486 17.7919 108.581 18.1277 108.607 18.4722H103.101C103.156 18.1972 103.247 17.9306 103.372 17.6793H103.377Z" fill="#1E1E1E"/>
<path d="M120.323 10.5691H117.885V24.4023H120.323V10.5691Z" fill="#1E1E1E"/>
<path d="M125.676 24.4023H128.152V12.5396H131.623V10.5691H122.215V12.5396H125.676V24.4023Z" fill="#1E1E1E"/>
<path d="M146.063 16.5248H140.662V10.5691H138.188V24.4023H140.662V18.4953H146.063V24.4023H148.539V10.5691H146.063V16.5248Z" fill="#1E1E1E"/>
<path d="M157.805 19.5732C157.803 20.0389 157.702 20.4988 157.509 20.9225C157.324 21.3508 157.04 21.7285 156.679 22.0236C156.319 22.317 155.867 22.4724 155.404 22.4618C154.974 22.4895 154.547 22.3665 154.198 22.1141C153.912 21.879 153.707 21.5592 153.614 21.2007C153.504 20.7988 153.451 20.3838 153.454 19.9673V14.4429H150.978V20.6049C150.978 21.078 151.033 21.5495 151.143 22.0097C151.248 22.4698 151.438 22.9062 151.704 23.2964C151.986 23.6931 152.364 24.0121 152.803 24.2237C153.352 24.4801 153.954 24.6024 154.56 24.5807C155.146 24.59 155.727 24.4697 156.261 24.2283C156.756 24.0003 157.196 23.6691 157.553 23.257C157.641 23.155 157.727 23.046 157.805 22.9347V24.3929H160.272V14.4243H157.805V19.5732Z" fill="#1E1E1E"/>
<path d="M172.204 16.6036C171.82 15.8945 171.251 15.3031 170.556 14.8927C169.862 14.4824 169.07 14.2684 168.263 14.2737C167.507 14.2685 166.764 14.468 166.112 14.8509C165.749 15.0624 165.418 15.3256 165.131 15.6322V9.73682H162.653V24.3953H165.129V23.1828C165.416 23.4982 165.746 23.7713 166.109 23.9942C166.756 24.3939 167.501 24.6036 168.261 24.5993C169.063 24.6068 169.852 24.4012 170.549 24.0035C171.262 23.5889 171.841 22.9792 172.218 22.2463C172.663 21.3599 172.879 20.3765 172.846 19.3855C172.876 18.4183 172.655 17.4599 172.204 16.6036ZM169.536 21.6922C169.133 22.0805 168.617 22.3304 168.063 22.4054C167.508 22.4804 166.944 22.3768 166.453 22.1095C166.066 21.8971 165.739 21.5909 165.502 21.2193C165.256 20.8308 165.128 20.3787 165.136 19.9187V18.85C165.125 18.3911 165.255 17.9399 165.507 17.5564C165.745 17.194 166.07 16.8967 166.453 16.6917C166.945 16.428 167.507 16.326 168.061 16.4001C168.614 16.4741 169.13 16.7205 169.536 17.1043C170.038 17.5896 170.29 18.3539 170.292 19.3971C170.293 20.4403 170.041 21.2053 169.536 21.6922Z" fill="#1E1E1E"/>
<path d="M45.8857 32.9196C45.5405 32.7229 45.1495 32.6205 44.7521 32.6229C44.3689 32.6193 43.9923 32.7229 43.6648 32.9219C43.4944 33.0225 43.3384 33.1457 43.2012 33.2882V30.344H41.7383V37.6953H43.2012V37.1041C43.338 37.2524 43.4939 37.3818 43.6648 37.4889C43.9886 37.6981 44.3666 37.8077 44.7521 37.8042C45.1582 37.809 45.5582 37.7058 45.9112 37.5052C46.2709 37.2963 46.5642 36.9902 46.7574 36.6219C46.9836 36.1741 47.0936 35.6767 47.0773 35.1753C47.0913 34.6911 46.9787 34.2116 46.7505 33.7843C46.5477 33.4217 46.2484 33.1223 45.8857 32.9196ZM45.2065 36.2116C44.9826 36.4273 44.6828 36.5464 44.3719 36.5431C44.1771 36.5419 43.9858 36.4917 43.8155 36.397C43.6371 36.3037 43.4861 36.1654 43.3774 35.996C43.2619 35.8139 43.203 35.6018 43.2081 35.3863V34.9574C43.2021 34.7432 43.2611 34.5322 43.3774 34.3523C43.4875 34.1858 43.6383 34.0501 43.8155 33.9582C44.0383 33.8428 44.2911 33.7985 44.5398 33.8312C44.7885 33.864 45.0212 33.9722 45.2065 34.1413C45.3348 34.2782 45.4328 34.4407 45.4939 34.6181C45.5551 34.7955 45.578 34.9838 45.5612 35.1707C45.5786 35.3593 45.556 35.5496 45.4949 35.729C45.4338 35.9083 45.3355 36.0728 45.2065 36.2116Z" fill="#1E1E1E"/>
<path d="M49.8685 36.4713L48.867 32.6995H47.3486L49.0687 37.7626L48.9853 38.0199C48.9389 38.1623 48.8683 38.2956 48.7766 38.414C48.6901 38.5222 48.5809 38.61 48.4567 38.6714C48.3267 38.7343 48.1838 38.7661 48.0394 38.7641C47.9302 38.7648 47.8211 38.7594 47.7125 38.7479C47.6397 38.7432 47.5679 38.7284 47.4993 38.7038V39.8073C47.5748 39.8288 47.6526 39.8412 47.7311 39.8444C47.854 39.8444 47.9954 39.8606 48.153 39.8606C48.5756 39.8779 48.9966 39.7987 49.384 39.6288C49.6907 39.4825 49.9514 39.2548 50.1375 38.9704C50.3359 38.6521 50.4918 38.3092 50.6011 37.9504L52.3166 32.7041H50.8167L49.8685 36.4713Z" fill="#1E1E1E"/>
<path d="M59.3132 34.204C58.9663 34.0131 58.6032 33.8533 58.2282 33.7264C57.9245 33.6221 57.6533 33.5177 57.4145 33.4157C57.2079 33.3315 57.0173 33.2123 56.8512 33.0634C56.7791 32.9924 56.7234 32.9065 56.6879 32.8118C56.6524 32.717 56.6381 32.6157 56.6458 32.5148C56.6535 32.4139 56.6832 32.316 56.7326 32.2277C56.7821 32.1395 56.8503 32.0631 56.9323 32.0039C57.1759 31.8651 57.4545 31.7999 57.7344 31.8161C58.0192 31.7917 58.3022 31.8799 58.5226 32.0619C58.6098 32.1544 58.677 32.2639 58.7201 32.3836C58.7632 32.5032 58.7812 32.6304 58.773 32.7573V32.9729H60.2312V32.6878C60.2458 32.2861 60.133 31.8902 59.909 31.5565C59.6857 31.2477 59.3771 31.0108 59.0211 30.8749C58.605 30.7143 58.1618 30.6355 57.7159 30.6431C57.2829 30.6368 56.8528 30.7156 56.4501 30.8749C56.1008 31.0091 55.7952 31.2369 55.5668 31.5333C55.3452 31.835 55.2309 32.2023 55.2423 32.5765C55.2294 32.9356 55.3229 33.2905 55.5112 33.5966C55.6953 33.8759 55.9412 34.1091 56.2299 34.2781C56.5345 34.4606 56.8598 34.6062 57.1989 34.7117C57.4894 34.7984 57.7743 34.903 58.052 35.0246C58.2701 35.1156 58.4708 35.2435 58.6455 35.4025C58.714 35.4643 58.7687 35.5398 58.8062 35.624C58.8438 35.7083 58.8633 35.7994 58.8634 35.8917C58.8723 36.0041 58.8496 36.1168 58.7981 36.2171C58.7465 36.3175 58.668 36.4014 58.5713 36.4596C58.3135 36.588 58.0267 36.6471 57.7391 36.6312C57.4458 36.6536 57.1555 36.5604 56.93 36.3715C56.8352 36.2738 56.7618 36.1573 56.7147 36.0296C56.6676 35.9018 56.6477 35.7656 56.6564 35.6297V35.3793H55.1936V35.6575C55.1793 36.0766 55.2916 36.4902 55.5158 36.8445C55.7358 37.1673 56.0475 37.4169 56.4107 37.5608C56.8321 37.7255 57.2821 37.8043 57.7344 37.7927C58.1894 37.7995 58.6415 37.7209 59.0674 37.5608C59.4243 37.4288 59.7356 37.197 59.9646 36.8932C60.1836 36.5851 60.296 36.2139 60.2845 35.836C60.2984 35.4853 60.2098 35.138 60.0295 34.8368C59.8454 34.5711 59.5996 34.3539 59.3132 34.204Z" fill="#1E1E1E"/>
<path d="M63.4258 31.0649H61.963V31.6955C61.9656 31.8859 61.9579 32.0763 61.9398 32.2658C61.9343 32.3752 61.8972 32.4807 61.8332 32.5695C61.7677 32.6379 61.6795 32.68 61.5851 32.6877C61.4359 32.7057 61.2856 32.7134 61.1353 32.7109H60.8108V33.8399H61.9699V36.3715C61.9587 36.6336 62.0137 36.8943 62.1299 37.1296C62.2273 37.3106 62.3735 37.4608 62.5518 37.5631C62.7259 37.6632 62.9168 37.7308 63.1152 37.7625C63.3106 37.7944 63.5083 37.8107 63.7063 37.8111C63.8462 37.8129 63.9859 37.8012 64.1236 37.7764C64.2188 37.7598 64.3121 37.7334 64.4018 37.6975V36.601C64.3344 36.6275 64.2645 36.6469 64.1932 36.659C64.0962 36.678 63.9976 36.6873 63.8987 36.6868C63.6924 36.6868 63.5626 36.6195 63.5116 36.4851C63.453 36.3152 63.4263 36.1361 63.4328 35.9565V33.8399H64.8863V32.7109H63.4328L63.4258 31.0649Z" fill="#1E1E1E"/>
<path d="M70.543 37.2733C70.5136 37.1681 70.4957 37.0601 70.4897 36.9511C70.4897 36.8328 70.4781 36.7192 70.4781 36.5824V34.4218C70.4922 34.0531 70.371 33.6919 70.1373 33.4064C69.8948 33.1303 69.5837 32.9232 69.2355 32.806C68.8441 32.6704 68.4325 32.603 68.0184 32.6066C67.587 32.6002 67.1581 32.6725 66.7526 32.8199C66.405 32.9447 66.098 33.1619 65.8647 33.4481C65.6419 33.7388 65.5264 34.0975 65.5378 34.4635H66.9728C66.9656 34.3563 66.9863 34.2491 67.0331 34.1524C67.0798 34.0556 67.1509 33.9727 67.2394 33.9118C67.4725 33.7768 67.7403 33.7139 68.0091 33.731C68.2655 33.7172 68.5209 33.7724 68.7486 33.8909C68.8289 33.9319 68.8963 33.9944 68.9434 34.0713C68.9904 34.1482 69.0153 34.2366 69.0152 34.3268V34.3383C69.0152 34.4465 68.9109 34.5238 68.7023 34.5702C68.4936 34.6142 68.1157 34.6629 67.5663 34.7162C67.2088 34.75 66.8568 34.8279 66.5184 34.9481C66.2203 35.0521 65.9542 35.2318 65.7465 35.4697C65.5443 35.7112 65.4401 36.0198 65.4544 36.3344C65.4436 36.619 65.5249 36.8995 65.6862 37.1342C65.8567 37.3607 66.0871 37.535 66.3515 37.6373C66.6609 37.7579 66.9909 37.817 67.3229 37.8111C67.617 37.8139 67.9099 37.7732 68.1922 37.6906C68.443 37.6194 68.6787 37.5032 68.8877 37.3475C68.9546 37.2952 69.0174 37.2378 69.0755 37.1759C69.0878 37.2286 69.1032 37.2805 69.1219 37.3313C69.1499 37.413 69.1881 37.4908 69.2355 37.5631C69.2649 37.6119 69.2991 37.6577 69.3375 37.6999H70.7725C70.7261 37.6555 70.6863 37.6048 70.6543 37.5492C70.6043 37.4629 70.5669 37.37 70.543 37.2733ZM68.8506 36.1907C68.7302 36.3661 68.5609 36.5023 68.3638 36.5824C68.1603 36.6668 67.9419 36.7094 67.7216 36.7076C67.5125 36.7219 67.3036 36.6769 67.1189 36.5778C67.0537 36.5372 67.0006 36.4799 66.9651 36.4118C66.9296 36.3437 66.9131 36.2673 66.9172 36.1907C66.9122 36.1103 66.9317 36.0302 66.9731 35.9611C67.0144 35.892 67.0758 35.8371 67.149 35.8035C67.3775 35.7086 67.6206 35.6537 67.8677 35.6412C68.1366 35.6111 68.4078 35.574 68.6791 35.5253C68.8043 35.5021 68.9225 35.4766 69.0338 35.4488V35.4905C69.0472 35.737 68.984 35.9815 68.853 36.1907H68.8506Z" fill="#1E1E1E"/>
<path d="M75.7289 32.8524C75.421 32.6771 75.0699 32.5919 74.7158 32.6066C74.3404 32.6024 73.9707 32.6984 73.6448 32.8848C73.3914 33.0303 73.1723 33.2288 73.0026 33.4667V32.6993H71.5444V37.6952H73.0026V35.0802C72.9983 34.8597 73.0434 34.6411 73.1348 34.4404C73.2165 34.2625 73.3487 34.1126 73.515 34.0092C73.6907 33.9023 73.8936 33.8483 74.0992 33.8538C74.3101 33.8396 74.5199 33.8941 74.6973 34.0092C74.8349 34.1113 74.9358 34.2553 74.9848 34.4195C75.0396 34.6038 75.0662 34.7953 75.0636 34.9875V37.6952H76.5171V34.5679C76.5249 34.2157 76.4586 33.8658 76.3224 33.5409C76.2007 33.2554 75.9933 33.0148 75.7289 32.8524Z" fill="#1E1E1E"/>
<path d="M81.2395 33.2766C81.1056 33.1345 80.9536 33.0106 80.7874 32.908C80.4613 32.7075 80.0853 32.6031 79.7025 32.6066C79.297 32.603 78.898 32.7088 78.5476 32.9128C78.1971 33.1167 77.9082 33.4114 77.7111 33.7658C77.4829 34.1931 77.3702 34.6725 77.3842 35.1567C77.3684 35.6588 77.4784 36.1569 77.7041 36.6057C77.8959 36.9755 78.1895 37.2828 78.5503 37.4913C78.9033 37.6919 79.3034 37.7952 79.7094 37.7903C80.0996 37.7946 80.4822 37.6824 80.8083 37.4681C80.9698 37.3621 81.117 37.2359 81.2464 37.0925V37.6767H82.7093V30.344H81.2464L81.2395 33.2766ZM81.0749 35.9936C80.9703 36.1653 80.8213 36.3054 80.6437 36.3993C80.4689 36.495 80.2726 36.5445 80.0734 36.5431C79.7625 36.5464 79.4627 36.4273 79.2388 36.2116C79.1108 36.0731 79.0131 35.9094 78.952 35.7309C78.8909 35.5525 78.8678 35.3632 78.8841 35.1753C78.8676 34.9886 78.8904 34.8006 78.9511 34.6233C79.0118 34.446 79.109 34.2834 79.2365 34.146C79.4219 33.9771 79.6546 33.8691 79.9033 33.8364C80.1519 33.8036 80.4046 33.8478 80.6275 33.9628C80.8042 34.0546 80.9543 34.1903 81.0633 34.3569C81.1796 34.5369 81.2386 34.7479 81.2325 34.962V35.3724C81.2407 35.5903 81.186 35.806 81.0749 35.9936Z" fill="#1E1E1E"/>
<path d="M88.9918 30.2769C88.791 30.2778 88.5907 30.298 88.3937 30.3371C88.1866 30.3764 87.9855 30.4427 87.7956 30.5342C87.6016 30.6277 87.4258 30.7549 87.2763 30.9097C87.1148 31.0804 86.9902 31.2824 86.91 31.5032C86.8159 31.7775 86.7711 32.0664 86.7779 32.3563V32.6995H85.7369V33.8285H86.7779V37.6954H88.2314V33.8285H89.5714V32.6995H88.2314V32.4236C88.2304 32.2911 88.2444 32.1588 88.2731 32.0295C88.2983 31.915 88.3481 31.8074 88.4192 31.7142C88.4926 31.6211 88.5906 31.5505 88.702 31.5102C88.8464 31.4596 88.9989 31.436 89.1518 31.4406C89.255 31.4396 89.3582 31.4474 89.4601 31.4638C89.5273 31.4737 89.5939 31.4876 89.6595 31.5055V30.3696C89.5934 30.3441 89.5251 30.3247 89.4555 30.3116C89.3027 30.2827 89.1472 30.271 88.9918 30.2769Z" fill="#1E1E1E"/>
<path d="M94.055 32.9381C93.6105 32.7231 93.1231 32.6113 92.6292 32.6113C92.1354 32.6113 91.648 32.7231 91.2035 32.9381C90.8034 33.1462 90.47 33.4628 90.2414 33.8515C90.0148 34.2651 89.8959 34.7291 89.8959 35.2008C89.8959 35.6724 90.0148 36.1364 90.2414 36.55C90.47 36.9423 90.8031 37.2633 91.2035 37.4773C91.6467 37.697 92.1346 37.8112 92.6292 37.8112C93.1239 37.8112 93.6118 37.697 94.055 37.4773C94.4554 37.2633 94.7885 36.9423 95.0171 36.55C95.2437 36.1364 95.3625 35.6724 95.3625 35.2008C95.3625 34.7291 95.2437 34.2651 95.0171 33.8515C94.7885 33.4628 94.4551 33.1462 94.055 32.9381ZM93.7304 35.9519C93.6353 36.1585 93.4833 36.3338 93.2923 36.4573C93.0913 36.5741 92.8629 36.6357 92.6304 36.6357C92.3979 36.6357 92.1695 36.5741 91.9685 36.4573C91.7763 36.3345 91.6234 36.1591 91.5281 35.9519C91.4195 35.7118 91.3664 35.4503 91.3727 35.1869C91.3661 34.9249 91.4192 34.6648 91.5281 34.4265C91.6234 34.2217 91.7765 34.0493 91.9685 33.9304C92.1705 33.8164 92.3985 33.7565 92.6304 33.7565C92.8623 33.7565 93.0903 33.8164 93.2923 33.9304C93.4829 34.0502 93.635 34.2225 93.7304 34.4265C93.8382 34.6652 93.8912 34.925 93.8858 35.1869C93.8927 35.4541 93.8396 35.7195 93.7304 35.9635V35.9519Z" fill="#1E1E1E"/>
<path d="M99.1714 32.6066C98.9375 32.6016 98.705 32.6434 98.4875 32.7295C98.2943 32.8065 98.1191 32.9225 97.9728 33.0703C97.8838 33.1662 97.806 33.272 97.741 33.3856V32.6901H96.2782V37.6952H97.741V35.3399C97.7415 35.1662 97.7641 34.9932 97.8083 34.8252C97.8505 34.6581 97.9244 34.5007 98.0262 34.3616C98.1329 34.2181 98.273 34.1027 98.4342 34.0254C98.6315 33.9342 98.8475 33.8905 99.0648 33.8979C99.1919 33.8938 99.3189 33.911 99.4403 33.9489C99.5047 33.9699 99.5674 33.9954 99.6281 34.0254L99.8599 32.7156C99.7898 32.688 99.7177 32.6655 99.6443 32.6484C99.489 32.6152 99.3301 32.6011 99.1714 32.6066Z" fill="#1E1E1E"/>
<path d="M106.699 35.2123C106.729 35.5927 106.633 35.9725 106.425 36.2926C106.19 36.5147 105.879 36.6384 105.556 36.6384C105.233 36.6384 104.922 36.5147 104.687 36.2926C104.482 35.9714 104.387 35.5921 104.418 35.2123V30.7566H102.955V35.1891C102.955 36.0685 103.187 36.7246 103.65 37.1574C104.114 37.5901 104.75 37.8073 105.558 37.8088C106.254 37.8472 106.937 37.6136 107.464 37.1574C107.928 36.7231 108.159 36.067 108.159 35.1891V30.7566H106.701L106.699 35.2123Z" fill="#1E1E1E"/>
<path d="M112.307 32.7017L110.689 34.146V30.344H109.305V37.6953H110.689V35.7479L111.118 35.3608L112.518 37.6953H114.05L112.043 34.5331L114.094 32.7017H112.307Z" fill="#1E1E1E"/>
<path d="M117.588 32.6065C117.35 32.5999 117.113 32.6418 116.892 32.7294C116.699 32.8064 116.524 32.9224 116.378 33.0702C116.289 33.1661 116.211 33.2719 116.146 33.3855V32.69H114.685V37.6952H116.146V35.3398C116.146 35.1661 116.169 34.9931 116.213 34.8251C116.255 34.658 116.329 34.5006 116.431 34.3615C116.538 34.218 116.678 34.1027 116.839 34.0253C117.036 33.9341 117.252 33.8905 117.47 33.8978C117.597 33.8937 117.724 33.911 117.845 33.9488C117.91 33.9698 117.972 33.9954 118.033 34.0253L118.265 32.7155C118.195 32.6879 118.123 32.6654 118.049 32.6483C117.898 32.616 117.743 32.602 117.588 32.6065Z" fill="#1E1E1E"/>
<path d="M123.826 37.2733C123.797 37.1681 123.779 37.0601 123.773 36.9511C123.773 36.8328 123.773 36.7192 123.773 36.5825V34.4218C123.788 34.0527 123.665 33.6911 123.43 33.4064C123.188 33.1307 122.878 32.9236 122.53 32.806C122.138 32.6702 121.726 32.6028 121.311 32.6066C120.88 32.6 120.452 32.6723 120.048 32.8199C119.7 32.9441 119.392 33.1614 119.16 33.4481C118.937 33.7388 118.821 34.0975 118.833 34.4636H120.268C120.26 34.3566 120.281 34.2496 120.327 34.1529C120.374 34.0562 120.444 33.9732 120.532 33.9118C120.765 33.7771 121.033 33.7142 121.302 33.731C121.559 33.7172 121.815 33.7724 122.044 33.8909C122.123 33.9323 122.19 33.9948 122.237 34.0717C122.284 34.1486 122.308 34.2369 122.308 34.3268V34.3384C122.308 34.4473 122.204 34.5238 121.997 34.5702C121.791 34.6166 121.408 34.6629 120.859 34.7163C120.502 34.75 120.151 34.8279 119.813 34.9481C119.516 35.0495 119.249 35.226 119.039 35.4604C118.837 35.702 118.733 36.0105 118.747 36.3251C118.736 36.6097 118.817 36.8902 118.979 37.1249C119.149 37.3515 119.38 37.5257 119.644 37.628C119.954 37.7487 120.283 37.8077 120.616 37.8019C120.909 37.8048 121.201 37.7641 121.483 37.6813C121.733 37.6099 121.969 37.4937 122.178 37.3382C122.245 37.2865 122.307 37.2291 122.363 37.1667C122.377 37.2177 122.394 37.271 122.41 37.322C122.439 37.4038 122.478 37.4817 122.526 37.5538C122.555 37.6024 122.588 37.6482 122.625 37.6906H124.06C124.016 37.6454 123.977 37.5948 123.945 37.5399C123.891 37.4578 123.851 37.3679 123.826 37.2733ZM122.132 36.1907C122.011 36.3661 121.842 36.5023 121.645 36.5825C121.441 36.6668 121.223 36.7094 121.003 36.7077C120.794 36.722 120.586 36.6769 120.402 36.5778C120.337 36.5374 120.283 36.4801 120.247 36.4121C120.212 36.344 120.195 36.2675 120.198 36.1907C120.194 36.1103 120.213 36.0305 120.255 35.9614C120.296 35.8924 120.357 35.8373 120.43 35.8035C120.658 35.7083 120.9 35.6534 121.146 35.6412C121.418 35.6111 121.687 35.574 121.958 35.5253C122.085 35.5022 122.19 35.4766 122.315 35.4488V35.4906C122.329 35.7374 122.265 35.9822 122.132 36.1907Z" fill="#1E1E1E"/>
<path d="M126.087 30.6963C125.912 30.5757 125.703 30.5132 125.491 30.5178C125.281 30.5136 125.075 30.5761 124.902 30.6963C124.823 30.755 124.759 30.8313 124.715 30.919C124.671 31.0068 124.649 31.1036 124.649 31.2017C124.649 31.2999 124.671 31.3967 124.715 31.4844C124.759 31.5721 124.823 31.6484 124.902 31.7071C125.074 31.8284 125.281 31.891 125.491 31.8856C125.703 31.8909 125.912 31.8292 126.087 31.7094C126.17 31.6547 126.238 31.5794 126.283 31.4909C126.329 31.4023 126.35 31.3035 126.346 31.204C126.35 31.1043 126.328 31.0052 126.283 30.9163C126.237 30.8275 126.17 30.7517 126.087 30.6963Z" fill="#1E1E1E"/>
<path d="M126.216 32.6995H124.772V37.6954H126.216V32.6995Z" fill="#1E1E1E"/>
<path d="M131.477 32.8524C131.169 32.6771 130.818 32.5919 130.464 32.6066C130.088 32.6024 129.718 32.6984 129.393 32.8848C129.139 33.0303 128.92 33.2288 128.75 33.4667V32.6993H127.292V37.6952H128.75V35.0802C128.746 34.8597 128.791 34.6411 128.883 34.4404C128.964 34.2625 129.096 34.1126 129.263 34.0092C129.438 33.9023 129.641 33.8483 129.847 33.8538C130.058 33.84 130.268 33.8944 130.445 34.0092C130.583 34.1113 130.684 34.2553 130.732 34.4195C130.787 34.6038 130.814 34.7953 130.811 34.9875V37.6952H132.265V34.5679C132.273 34.2157 132.206 33.8658 132.07 33.5409C131.948 33.2554 131.741 33.0148 131.477 32.8524Z" fill="#1E1E1E"/>
<path d="M137.312 32.9382C136.868 32.7079 136.372 32.5939 135.872 32.6067C135.376 32.5961 134.884 32.7084 134.442 32.9336C134.041 33.1402 133.706 33.456 133.477 33.8447C133.252 34.2614 133.133 34.728 133.133 35.202C133.133 35.676 133.252 36.1426 133.477 36.5594C133.7 36.9534 134.03 37.2753 134.43 37.4867C134.876 37.7157 135.373 37.8296 135.874 37.8182C136.243 37.824 136.61 37.7763 136.964 37.6768C137.255 37.5971 137.529 37.4677 137.775 37.2943C137.984 37.1479 138.161 36.962 138.297 36.7471C138.419 36.5614 138.493 36.349 138.515 36.1282H137.075C137.064 36.2021 137.034 36.2721 136.99 36.3322C136.936 36.4088 136.866 36.4729 136.786 36.5199C136.678 36.583 136.561 36.6299 136.44 36.659C136.275 36.6968 136.106 36.7147 135.937 36.7124C135.673 36.7222 135.411 36.6588 135.181 36.5292C134.976 36.4065 134.815 36.2235 134.718 36.0053C134.667 35.8901 134.63 35.7695 134.606 35.646H138.547C138.556 35.5931 138.561 35.5396 138.561 35.486C138.561 35.4141 138.561 35.3376 138.561 35.2542C138.574 34.7699 138.46 34.2906 138.232 33.8632C138.02 33.4731 137.701 33.1521 137.312 32.9382ZM135.179 33.8655C135.396 33.7428 135.643 33.6819 135.893 33.6893C136.13 33.6792 136.364 33.7337 136.572 33.847C136.739 33.9407 136.875 34.0808 136.964 34.2504C137.032 34.3783 137.073 34.5187 137.085 34.663H134.623C134.646 34.5626 134.679 34.4647 134.722 34.3709C134.821 34.1633 134.98 33.9903 135.179 33.8748V33.8655Z" fill="#1E1E1E"/>
</g>
<defs>
<clipPath id="clip0_107_2149">
<rect width="172.846" height="48" fill="white"/>
</clipPath>
</defs>
</svg>
