<svg width="24" height="24" viewBox="0 0 24 24" fill="none" xmlns="http://www.w3.org/2000/svg">
<path d="M6.195 1.18952C7.21796 0.414789 8.46678 -0.00306466 9.75 1.69229e-05C10.11 1.69229e-05 10.3965 0.187517 10.563 0.316517C10.749 0.463517 10.923 0.651017 11.079 0.838517C11.1896 0.972863 11.2501 1.14149 11.25 1.31552V6.75002H9.6225C9.44558 6.24961 9.09745 5.82785 8.63964 5.55929C8.18183 5.29074 7.64382 5.19267 7.1207 5.28242C6.59758 5.37217 6.12303 5.64397 5.78092 6.04977C5.43882 6.45557 5.25118 6.96925 5.25118 7.50002C5.25118 8.03078 5.43882 8.54446 5.78092 8.95026C6.12303 9.35606 6.59758 9.62786 7.1207 9.71761C7.64382 9.80737 8.18183 9.7093 8.63964 9.44074C9.09745 9.17218 9.44558 8.75043 9.6225 8.25002H11.25V22.3725C11.2501 22.4836 11.2255 22.5932 11.178 22.6936C11.1305 22.794 11.0614 22.8826 10.9755 22.953C10.2825 23.52 9.3555 24 8.25 24C6.471 24 5.1465 23.103 4.29 22.0305C3.67464 21.2664 3.25316 20.3647 3.0615 19.4025C2.47872 19.2471 1.93838 18.9626 1.4805 18.57C0.6525 17.8605 0 16.71 0 15C0 14.1645 0.0554998 13.41 0.18 12.75H4.875C5.829 12.75 6.615 13.4625 6.735 14.3835C6.23617 14.564 5.81717 14.915 5.55198 15.3745C5.28679 15.8339 5.19247 16.3723 5.28567 16.8945C5.37887 17.4168 5.6536 17.8893 6.06135 18.2286C6.46909 18.568 6.98363 18.7524 7.51412 18.7492C8.0446 18.746 8.5569 18.5555 8.96056 18.2113C9.36423 17.8671 9.63329 17.3913 9.72024 16.868C9.80719 16.3447 9.70644 15.8075 9.43578 15.3513C9.16512 14.895 8.74195 14.5491 8.241 14.3745C8.17778 13.5251 7.7957 12.7309 7.17141 12.1514C6.54712 11.5719 5.7268 11.2499 4.875 11.25H0.6615C0.891 10.803 1.1985 10.425 1.599 10.1565C1.70031 10.0895 1.80662 10.0303 1.917 9.97952C1.491 8.73152 1.602 7.27052 2.013 6.12302C2.2755 5.38502 2.6925 4.68752 3.2655 4.22252C3.6435 3.91502 4.0935 3.71252 4.5855 3.67352C4.8015 2.64902 5.409 1.80152 6.1965 1.18952H6.195ZM12.75 18.75H13.875C14.7701 18.75 15.6285 18.3944 16.2615 17.7615C16.8944 17.1286 17.25 16.2701 17.25 15.375V12.6225C17.7504 12.4456 18.1722 12.0975 18.4407 11.6397C18.7093 11.1818 18.8074 10.6438 18.7176 10.1207C18.6278 9.5976 18.356 9.12304 17.9502 8.78094C17.5444 8.43883 17.0308 8.2512 16.5 8.2512C15.9692 8.2512 15.4556 8.43883 15.0498 8.78094C14.644 9.12304 14.3722 9.5976 14.2824 10.1207C14.1927 10.6438 14.2907 11.1818 14.5593 11.6397C14.8278 12.0975 15.2496 12.4456 15.75 12.6225V15.375C15.75 16.41 14.91 17.25 13.875 17.25H12.75V1.31552C12.7499 1.14149 12.8104 0.972863 12.921 0.838517C13.0755 0.651017 13.251 0.463517 13.437 0.316517C13.602 0.187517 13.8885 1.69229e-05 14.25 1.69229e-05C15.5332 -0.00306466 16.782 0.414789 17.805 1.18952C18.5925 1.80152 19.2 2.64902 19.4145 3.67352C19.9065 3.71102 20.3565 3.91502 20.7345 4.22252C21.3075 4.68752 21.7245 5.38502 21.987 6.12302C22.398 7.27052 22.509 8.73302 22.083 9.97802C22.191 10.029 22.2975 10.089 22.401 10.158C22.8135 10.4325 23.127 10.8255 23.358 11.289C23.8125 12.1965 24 13.4625 24 15C24 16.7115 23.3475 17.8605 22.5195 18.57C22.0616 18.9626 21.5213 19.2471 20.9385 19.4025C20.7885 20.2395 20.3685 21.2085 19.71 22.0305C18.855 23.103 17.529 24 15.75 24C14.646 24 13.7175 23.52 13.026 22.953C12.9398 22.8828 12.8704 22.7942 12.8227 22.6938C12.7749 22.5934 12.7501 22.4837 12.75 22.3725V18.75ZM7.5 6.75002C7.30109 6.75002 7.11032 6.82903 6.96967 6.96969C6.82902 7.11034 6.75 7.30111 6.75 7.50002C6.75 7.69893 6.82902 7.88969 6.96967 8.03035C7.11032 8.171 7.30109 8.25002 7.5 8.25002C7.69891 8.25002 7.88968 8.171 8.03033 8.03035C8.17098 7.88969 8.25 7.69893 8.25 7.50002C8.25 7.30111 8.17098 7.11034 8.03033 6.96969C7.88968 6.82903 7.69891 6.75002 7.5 6.75002ZM7.5 15.75C7.30109 15.75 7.11032 15.829 6.96967 15.9697C6.82902 16.1103 6.75 16.3011 6.75 16.5C6.75 16.6989 6.82902 16.8897 6.96967 17.0303C7.11032 17.171 7.30109 17.25 7.5 17.25C7.69891 17.25 7.88968 17.171 8.03033 17.0303C8.17098 16.8897 8.25 16.6989 8.25 16.5C8.25 16.3011 8.17098 16.1103 8.03033 15.9697C7.88968 15.829 7.69891 15.75 7.5 15.75ZM16.5 11.25C16.6989 11.25 16.8897 11.171 17.0303 11.0303C17.171 10.8897 17.25 10.6989 17.25 10.5C17.25 10.3011 17.171 10.1103 17.0303 9.96969C16.8897 9.82903 16.6989 9.75002 16.5 9.75002C16.3011 9.75002 16.1103 9.82903 15.9697 9.96969C15.829 10.1103 15.75 10.3011 15.75 10.5C15.75 10.6989 15.829 10.8897 15.9697 11.0303C16.1103 11.171 16.3011 11.25 16.5 11.25Z" fill="#F8D45B"/>
</svg>
