<svg width="70" height="70" viewBox="0 0 70 70" fill="none" xmlns="http://www.w3.org/2000/svg">
<path d="M21.455 9.77554C23.8419 7.96784 26.7558 6.99285 29.75 7.00004C30.59 7.00004 31.2585 7.43754 31.647 7.73854C32.081 8.08154 32.487 8.51904 32.851 8.95654C33.1091 9.27001 33.2502 9.66348 33.25 10.0695V22.75H29.4525C29.0397 21.5824 28.2274 20.5983 27.1592 19.9717C26.0909 19.345 24.8356 19.1162 23.615 19.3256C22.3943 19.5351 21.2871 20.1693 20.4888 21.1161C19.6906 22.063 19.2528 23.2616 19.2528 24.5C19.2528 25.7385 19.6906 26.9371 20.4888 27.8839C21.2871 28.8308 22.3943 29.465 23.615 29.6744C24.8356 29.8839 26.0909 29.655 27.1592 29.0284C28.2274 28.4018 29.0397 27.4177 29.4525 26.25H33.25V59.2025C33.2502 59.4616 33.1928 59.7176 33.082 59.9518C32.9713 60.186 32.8099 60.3928 32.6095 60.557C30.9925 61.88 28.8295 63 26.25 63C22.099 63 19.0085 60.907 17.01 58.4045C15.5742 56.6215 14.5907 54.5177 14.1435 52.2725C12.7837 51.91 11.5229 51.2461 10.4545 50.33C8.5225 48.6745 7 45.99 7 42C7 40.0505 7.1295 38.29 7.42 36.75H18.375C20.601 36.75 22.435 38.4125 22.715 40.5615C21.5511 40.9828 20.5734 41.8017 19.9546 42.8737C19.3358 43.9458 19.1158 45.202 19.3332 46.4206C19.5507 47.6391 20.1917 48.7417 21.1431 49.5335C22.0946 50.3253 23.2951 50.7555 24.5329 50.7481C25.7707 50.7407 26.9661 50.2962 27.908 49.4931C28.8499 48.6899 29.4777 47.5798 29.6806 46.3587C29.8834 45.1377 29.6484 43.8842 29.0168 42.8196C28.3853 41.755 27.3979 40.9478 26.229 40.5405C26.0815 38.5585 25.19 36.7055 23.7333 35.3534C22.2766 34.0012 20.3625 33.2499 18.375 33.25H8.5435C9.079 32.207 9.7965 31.325 10.731 30.6985C10.9674 30.5421 11.2154 30.404 11.473 30.2855C10.479 27.3735 10.738 23.9645 11.697 21.287C12.3095 19.565 13.2825 17.9375 14.6195 16.8525C15.5015 16.135 16.5515 15.6625 17.6995 15.5715C18.2035 13.181 19.621 11.2035 21.4585 9.77554H21.455ZM36.75 50.75H39.375C41.4636 50.75 43.4666 49.9204 44.9435 48.4435C46.4203 46.9667 47.25 44.9636 47.25 42.875V36.4525C48.4176 36.0397 49.4017 35.2274 50.0284 34.1592C50.655 33.091 50.8838 31.8356 50.6744 30.615C50.465 29.3944 49.8308 28.2871 48.8839 27.4889C47.937 26.6906 46.7385 26.2528 45.5 26.2528C44.2615 26.2528 43.063 26.6906 42.1161 27.4889C41.1692 28.2871 40.535 29.3944 40.3256 30.615C40.1162 31.8356 40.345 33.091 40.9716 34.1592C41.5983 35.2274 42.5824 36.0397 43.75 36.4525V42.875C43.75 45.29 41.79 47.25 39.375 47.25H36.75V10.0695C36.7498 9.66348 36.8909 9.27001 37.149 8.95654C37.5095 8.51904 37.919 8.08154 38.353 7.73854C38.738 7.43754 39.4065 7.00004 40.25 7.00004C43.2442 6.99285 46.1581 7.96784 48.545 9.77554C50.3825 11.2035 51.8 13.181 52.3005 15.5715C53.4485 15.659 54.4985 16.135 55.3805 16.8525C56.7175 17.9375 57.6905 19.565 58.303 21.287C59.262 23.9645 59.521 27.377 58.527 30.282C58.779 30.401 59.0275 30.541 59.269 30.702C60.2315 31.3425 60.963 32.2595 61.502 33.341C62.5625 35.4585 63 38.4125 63 42C63 45.9935 61.4775 48.6745 59.5455 50.33C58.4771 51.2461 57.2163 51.91 55.8565 52.2725C55.5065 54.2255 54.5265 56.4865 52.99 58.4045C50.995 60.907 47.901 63 43.75 63C41.174 63 39.0075 61.88 37.394 60.557C37.193 60.3931 37.0309 60.1865 36.9195 59.9523C36.8082 59.718 36.7503 59.4619 36.75 59.2025V50.75ZM24.5 22.75C24.0359 22.75 23.5908 22.9344 23.2626 23.2626C22.9344 23.5908 22.75 24.0359 22.75 24.5C22.75 24.9642 22.9344 25.4093 23.2626 25.7375C23.5908 26.0657 24.0359 26.25 24.5 26.25C24.9641 26.25 25.4092 26.0657 25.7374 25.7375C26.0656 25.4093 26.25 24.9642 26.25 24.5C26.25 24.0359 26.0656 23.5908 25.7374 23.2626C25.4092 22.9344 24.9641 22.75 24.5 22.75ZM24.5 43.75C24.0359 43.75 23.5908 43.9344 23.2626 44.2626C22.9344 44.5908 22.75 45.0359 22.75 45.5C22.75 45.9642 22.9344 46.4093 23.2626 46.7375C23.5908 47.0657 24.0359 47.25 24.5 47.25C24.9641 47.25 25.4092 47.0657 25.7374 46.7375C26.0656 46.4093 26.25 45.9642 26.25 45.5C26.25 45.0359 26.0656 44.5908 25.7374 44.2626C25.4092 43.9344 24.9641 43.75 24.5 43.75ZM45.5 33.25C45.9641 33.25 46.4092 33.0657 46.7374 32.7375C47.0656 32.4093 47.25 31.9642 47.25 31.5C47.25 31.0359 47.0656 30.5908 46.7374 30.2626C46.4092 29.9344 45.9641 29.75 45.5 29.75C45.0359 29.75 44.5908 29.9344 44.2626 30.2626C43.9344 30.5908 43.75 31.0359 43.75 31.5C43.75 31.9642 43.9344 32.4093 44.2626 32.7375C44.5908 33.0657 45.0359 33.25 45.5 33.25Z" fill="#F8D45B"/>
</svg>
