<svg width="64" height="64" viewBox="0 0 64 64" fill="none" xmlns="http://www.w3.org/2000/svg">
<path d="M20.9996 9.46216C20.9996 8.18272 21.8527 7.2687 23.1464 7.16929L37.3771 6.00519C38.249 5.93365 38.999 6.61122 38.999 7.47305V10.2077C38.999 11.1043 38.324 11.6805 37.499 11.6805H23.2589C22.0495 11.6805 20.9996 10.7333 20.9996 9.46216ZM37.349 14.626C37.4521 15.1874 37.499 15.6753 37.499 16.0987C37.499 20.25 34.1429 23.4624 29.9993 23.4624C25.8557 23.4624 22.4995 20.25 22.4995 16.0987C22.4995 15.6753 22.5558 15.1874 22.6495 14.626H37.349ZM44.0238 48.2412L38.999 39.9018V50.0545C38.999 50.1742 38.9896 50.2846 38.9802 50.4043L22.6401 27.494C24.1963 26.8405 25.8932 26.4079 27.6369 26.4079H32.3617C33.8523 26.4079 35.3053 26.7484 36.6553 27.2179L45.5519 12.1048C44.83 11.6989 44.5863 10.7978 44.9988 10.0936C45.4112 9.38945 46.33 9.14737 47.0518 9.55421L49.6486 11.0269C50.3611 11.4338 50.6048 12.3349 50.1923 13.0391L44.9144 21.8792L45.1488 21.9712C46.5831 22.7812 47.0706 24.5854 46.2456 25.9937L42.8051 31.8294C42.9926 32.0963 43.1707 32.3632 43.3394 32.6394L50.4736 44.5041C51.5329 46.253 50.9423 48.5081 49.1611 49.5391C47.3706 50.5792 45.0738 49.9993 44.0238 48.2412ZM33.7491 35.2443C34.996 35.2443 35.9991 34.3422 35.9991 33.0352C35.9991 31.8938 34.996 30.8261 33.7491 30.8261C32.5023 30.8261 31.4992 31.8938 31.4992 33.0352C31.4992 34.3422 32.5023 35.2443 33.7491 35.2443ZM23.9995 53C22.3402 53 20.9996 51.6837 20.9996 50.0545V39.9018L15.9785 48.2412C14.9257 49.9993 12.6261 50.5792 10.843 49.5391C9.0598 48.5081 8.46853 46.253 9.52206 44.5041L16.6591 32.6394C17.5366 31.1022 18.6934 29.9424 20.034 28.9575L37.0397 52.8159C36.7115 52.9356 36.3647 53 35.9991 53H23.9995Z" fill="#F8D45B"/>
</svg>
