<svg width="22" height="24" viewBox="0 0 22 24" fill="none" xmlns="http://www.w3.org/2000/svg">
<path d="M6.49962 1.79584C6.49962 1.14428 6.92619 0.678809 7.57306 0.628184L14.6887 0.0353564C15.1246 -0.00107487 15.4996 0.343981 15.4996 0.782872V2.17553C15.4996 2.63209 15.1621 2.92553 14.7496 2.92553H7.62931C7.02462 2.92553 6.49962 2.44318 6.49962 1.79584ZM14.6746 4.42553C14.7262 4.71146 14.7496 4.9599 14.7496 5.17553C14.7496 7.28959 13.0715 8.92553 10.9996 8.92553C8.92775 8.92553 7.24962 7.28959 7.24962 5.17553C7.24962 4.9599 7.27775 4.71146 7.32463 4.42553H14.6746ZM18.0121 21.5443L15.4996 17.2974V22.4677C15.4996 22.5286 15.4949 22.5849 15.4902 22.6458L7.31994 10.9786C8.09806 10.6458 8.9465 10.4255 9.81837 10.4255H12.1809C12.9262 10.4255 13.6527 10.599 14.3277 10.838L18.7762 3.14162C18.4152 2.9349 18.2934 2.476 18.4996 2.1174C18.7059 1.75881 19.1652 1.63553 19.5262 1.84272L20.8246 2.59271C21.1809 2.7999 21.3027 3.25881 21.0965 3.6174L18.4574 8.11928L18.5746 8.16615C19.2918 8.57865 19.5356 9.4974 19.1231 10.2146L17.4028 13.1865C17.4965 13.3224 17.5856 13.4583 17.6699 13.599L21.2371 19.6411C21.7668 20.5318 21.4715 21.6802 20.5809 22.2052C19.6856 22.7349 18.5371 22.4396 18.0121 21.5443ZM12.8746 14.9255C13.4981 14.9255 13.9996 14.4661 13.9996 13.8005C13.9996 13.2193 13.4981 12.6755 12.8746 12.6755C12.2512 12.6755 11.7496 13.2193 11.7496 13.8005C11.7496 14.4661 12.2512 14.9255 12.8746 14.9255ZM7.99962 23.9677C7.16994 23.9677 6.49962 23.2974 6.49962 22.4677V17.2974L3.989 21.5443C3.46259 22.4396 2.31275 22.7349 1.42119 22.2052C0.529536 21.6802 0.233891 20.5318 0.760672 19.6411L4.32931 13.599C4.76806 12.8161 5.3465 12.2255 6.01681 11.724L14.5199 23.874C14.3559 23.9349 14.1824 23.9677 13.9996 23.9677H7.99962Z" fill="#F8D45B"/>
</svg>
