<svg width="16" height="16" viewBox="0 0 16 16" fill="none" xmlns="http://www.w3.org/2000/svg">
<path d="M8.00926 -0.000213609C8.18426 -0.00158548 8.35301 0.0433113 8.50301 0.127061L14.8905 2.82906C15.2405 2.97718 15.4749 3.28437 15.4968 3.69062C15.6749 6.67499 14.5843 13.1844 8.51551 15.8656C8.36238 15.9531 8.15926 16.0031 8.00926 16C7.82801 16.0031 7.65301 15.9531 7.47176 15.8656C1.43114 13.1844 0.342077 6.67499 0.517702 3.69062C0.53989 3.28437 0.775827 2.97718 1.12614 2.82906L7.51238 0.127061C7.66238 0.0433113 7.83426 -0.00158548 8.00926 -0.000213609ZM8.31551 11.3562L11.3811 8.23749C12.2561 7.33436 12.203 5.83124 11.1905 4.98437C10.3686 4.24374 9.10926 4.38124 8.31551 5.20312L8.01238 5.50312L7.68426 5.20312C6.91863 4.38124 5.63114 4.24374 4.78114 4.98437C3.79676 5.83124 3.74364 7.33436 4.61864 8.23749L7.63113 11.3562C7.84988 11.5469 8.14988 11.5469 8.31551 11.3562Z" fill="#999999"/>
</svg>
