<svg width="33" height="32" viewBox="0 0 33 32" fill="none" xmlns="http://www.w3.org/2000/svg">
<path d="M16.9866 32C25.8231 32 32.9866 24.8366 32.9866 16C32.9866 7.16344 25.8231 0 16.9866 0C8.15002 0 0.986572 7.16344 0.986572 16C0.986572 24.8366 8.15002 32 16.9866 32Z" fill="url(#paint0_linear_177_32943)"/>
<path fill-rule="evenodd" clip-rule="evenodd" d="M8.2291 15.8311C12.8934 13.7989 16.0037 12.4592 17.5599 11.8119C22.0033 9.96376 22.9266 9.64271 23.5284 9.63211C23.6608 9.62978 23.9567 9.66258 24.1484 9.81813C24.3103 9.94948 24.3548 10.1269 24.3761 10.2514C24.3974 10.376 24.424 10.6596 24.4029 10.8813C24.1621 13.4113 23.1202 19.5509 22.5901 22.3845C22.3659 23.5835 21.9242 23.9855 21.4967 24.0248C20.5675 24.1103 19.862 23.4108 18.9621 22.8209C17.5538 21.8978 16.7583 21.3232 15.3914 20.4224C13.8117 19.3814 14.8357 18.8092 15.736 17.8742C15.9716 17.6295 20.0655 13.9058 20.1447 13.568C20.1546 13.5258 20.1638 13.3683 20.0703 13.2851C19.9767 13.202 19.8386 13.2304 19.739 13.253C19.5977 13.2851 17.3481 14.772 12.9901 17.7138C12.3515 18.1523 11.7732 18.3659 11.255 18.3547C10.6837 18.3424 9.58476 18.0317 8.76782 17.7661C7.76582 17.4404 6.96945 17.2682 7.0388 16.7151C7.07492 16.427 7.47168 16.1323 8.2291 15.8311Z" fill="white"/>
<defs>
<linearGradient id="paint0_linear_177_32943" x1="16.9866" y1="0" x2="16.9866" y2="31.7627" gradientUnits="userSpaceOnUse">
<stop stop-color="#333333"/>
<stop offset="1" stop-color="#333333"/>
</linearGradient>
</defs>
</svg>
