<svg width="32" height="32" viewBox="0 0 32 32" fill="none" xmlns="http://www.w3.org/2000/svg">
<g filter="url(#filter0_d_128_30101)">
<path d="M21.232 14.4C21.328 13.608 21.4 12.816 21.4 12C21.4 11.184 21.328 10.392 21.232 9.6H25.288C25.48 10.368 25.6 11.172 25.6 12C25.6 12.828 25.48 13.632 25.288 14.4H21.232ZM19.108 21.072C19.828 19.74 20.38 18.3 20.764 16.8H24.304C23.1414 18.8019 21.2969 20.3184 19.108 21.072ZM18.808 14.4H13.192C13.072 13.608 13 12.816 13 12C13 11.184 13.072 10.38 13.192 9.6H18.808C18.916 10.38 19 11.184 19 12C19 12.816 18.916 13.608 18.808 14.4ZM16 21.552C15.004 20.112 14.2 18.516 13.708 16.8H18.292C17.8 18.516 16.996 20.112 16 21.552ZM11.2 7.2H7.696C8.84663 5.19266 10.6898 3.67378 12.88 2.928C12.16 4.26 11.62 5.7 11.2 7.2ZM7.696 16.8H11.2C11.62 18.3 12.16 19.74 12.88 21.072C10.6943 20.318 8.85382 18.8013 7.696 16.8ZM6.712 14.4C6.52 13.632 6.4 12.828 6.4 12C6.4 11.172 6.52 10.368 6.712 9.6H10.768C10.672 10.392 10.6 11.184 10.6 12C10.6 12.816 10.672 13.608 10.768 14.4H6.712ZM16 2.436C16.996 3.876 17.8 5.484 18.292 7.2H13.708C14.2 5.484 15.004 3.876 16 2.436ZM24.304 7.2H20.764C20.3884 5.71375 19.8323 4.27908 19.108 2.928C21.316 3.684 23.152 5.208 24.304 7.2ZM16 0C9.364 0 4 5.4 4 12C4 15.1826 5.26428 18.2348 7.51472 20.4853C8.62902 21.5996 9.95189 22.4835 11.4078 23.0866C12.8637 23.6896 14.4241 24 16 24C19.1826 24 22.2348 22.7357 24.4853 20.4853C26.7357 18.2348 28 15.1826 28 12C28 10.4241 27.6896 8.86371 27.0866 7.4078C26.4835 5.95189 25.5996 4.62902 24.4853 3.51472C23.371 2.40042 22.0481 1.5165 20.5922 0.913446C19.1363 0.310389 17.5759 0 16 0Z" fill="#F8D45B"/>
</g>
<defs>
<filter id="filter0_d_128_30101" x="0" y="0" width="32" height="32" filterUnits="userSpaceOnUse" color-interpolation-filters="sRGB">
<feFlood flood-opacity="0" result="BackgroundImageFix"/>
<feColorMatrix in="SourceAlpha" type="matrix" values="0 0 0 0 0 0 0 0 0 0 0 0 0 0 0 0 0 0 127 0" result="hardAlpha"/>
<feOffset dy="4"/>
<feGaussianBlur stdDeviation="2"/>
<feComposite in2="hardAlpha" operator="out"/>
<feColorMatrix type="matrix" values="0 0 0 0 0 0 0 0 0 0 0 0 0 0 0 0 0 0 0.25 0"/>
<feBlend mode="normal" in2="BackgroundImageFix" result="effect1_dropShadow_128_30101"/>
<feBlend mode="normal" in="SourceGraphic" in2="effect1_dropShadow_128_30101" result="shape"/>
</filter>
</defs>
</svg>
