<svg width="70" height="70" viewBox="0 0 70 70" fill="none" xmlns="http://www.w3.org/2000/svg">
<path d="M47.208 40.6C47.432 38.752 47.6 36.904 47.6 35C47.6 33.096 47.432 31.248 47.208 29.4H56.672C57.12 31.192 57.4 33.068 57.4 35C57.4 36.932 57.12 38.808 56.672 40.6H47.208ZM42.252 56.168C43.932 53.06 45.22 49.7 46.116 46.2H54.376C51.6633 50.8712 47.3595 54.4096 42.252 56.168V56.168ZM41.552 40.6H28.448C28.168 38.752 28 36.904 28 35C28 33.096 28.168 31.22 28.448 29.4H41.552C41.804 31.22 42 33.096 42 35C42 36.904 41.804 38.752 41.552 40.6ZM35 57.288C32.676 53.928 30.8 50.204 29.652 46.2H40.348C39.2 50.204 37.324 53.928 35 57.288ZM23.8 23.8H15.624C18.3088 19.1162 22.6094 15.5722 27.72 13.832C26.04 16.94 24.78 20.3 23.8 23.8ZM15.624 46.2H23.8C24.78 49.7 26.04 53.06 27.72 56.168C22.6201 54.4087 18.3256 50.8696 15.624 46.2V46.2ZM13.328 40.6C12.88 38.808 12.6 36.932 12.6 35C12.6 33.068 12.88 31.192 13.328 29.4H22.792C22.568 31.248 22.4 33.096 22.4 35C22.4 36.904 22.568 38.752 22.792 40.6H13.328ZM35 12.684C37.324 16.044 39.2 19.796 40.348 23.8H29.652C30.8 19.796 32.676 16.044 35 12.684V12.684ZM54.376 23.8H46.116C45.2397 20.3321 43.942 16.9845 42.252 13.832C47.404 15.596 51.688 19.152 54.376 23.8ZM35 7C19.516 7 7 19.6 7 35C7 42.4261 9.94999 49.548 15.201 54.799C17.8011 57.399 20.8877 59.4615 24.2849 60.8686C27.682 62.2758 31.323 63 35 63C42.4261 63 49.548 60.05 54.799 54.799C60.05 49.548 63 42.4261 63 35C63 31.323 62.2758 27.682 60.8686 24.2849C59.4615 20.8877 57.399 17.8011 54.799 15.201C52.1989 12.601 49.1123 10.5385 45.7151 9.13137C42.318 7.72424 38.677 7 35 7V7Z" fill="#F8D45B"/>
</svg>
