<svg width="1440" height="990" viewBox="0 0 1440 990" fill="none" xmlns="http://www.w3.org/2000/svg">
<rect x="780.367" y="300.641" width="1" height="689.358" fill="#F8F8F8"/>
<rect width="0.999797" height="689.519" transform="matrix(0.999858 -0.0168758 0.0374139 0.9993 779.766 299.883)" fill="#F8F8F8"/>
<rect width="0.99919" height="690.313" transform="matrix(0.99943 -0.0337584 0.0747182 0.997205 779.766 299.891)" fill="#F8F8F8"/>
<rect width="0.99818" height="691.632" transform="matrix(0.998716 -0.0506549 0.111805 0.99373 779.766 299.891)" fill="#F8F8F8"/>
<rect width="0.996768" height="693.47" transform="matrix(0.997714 -0.0675719 0.148568 0.988902 779.766 299.891)" fill="#F8F8F8"/>
<rect width="0.994957" height="695.818" transform="matrix(0.996422 -0.0845165 0.184908 0.982756 779.766 299.891)" fill="#F8F8F8"/>
<rect width="0.992751" height="698.665" transform="matrix(0.994836 -0.101495 0.22073 0.975335 779.766 299.898)" fill="#F8F8F8"/>
<rect width="0.990155" height="701.997" transform="matrix(0.992952 -0.118515 0.255944 0.966692 779.766 299.898)" fill="#F8F8F8"/>
<rect width="0.987174" height="705.801" transform="matrix(0.990766 -0.135582 0.290471 0.956884 779.766 299.898)" fill="#F8F8F8"/>
<rect width="0.983813" height="710.057" transform="matrix(0.988272 -0.152704 0.324239 0.945975 779.773 299.898)" fill="#F8F8F8"/>
<rect width="0.98008" height="714.749" transform="matrix(0.985464 -0.169885 0.357183 0.934035 779.773 299.906)" fill="#F8F8F8"/>
<rect width="0.975982" height="719.854" transform="matrix(0.982334 -0.187134 0.389249 0.921133 779.773 299.906)" fill="#F8F8F8"/>
<rect width="0.971527" height="725.353" transform="matrix(0.978876 -0.204455 0.420391 0.907343 779.773 299.906)" fill="#F8F8F8"/>
<rect width="0.966724" height="731.223" transform="matrix(0.97508 -0.221854 0.450573 0.89274 779.773 299.906)" fill="#F8F8F8"/>
<rect width="0.961583" height="737.439" transform="matrix(0.970936 -0.239338 0.479766 0.877397 779.773 299.906)" fill="#F8F8F8"/>
<rect width="0.956114" height="743.977" transform="matrix(0.966435 -0.256911 0.50795 0.861387 779.773 299.914)" fill="#F8F8F8"/>
<rect width="0.950329" height="750.814" transform="matrix(0.961565 -0.274579 0.535112 0.844781 779.773 299.914)" fill="#F8F8F8"/>
<rect width="0.944238" height="757.924" transform="matrix(0.956313 -0.292345 0.561247 0.827648 779.781 299.914)" fill="#F8F8F8"/>
<rect width="0.937855" height="765.281" transform="matrix(0.950666 -0.310215 0.586356 0.810054 779.781 299.922)" fill="#F8F8F8"/>
<rect width="0.931192" height="772.86" transform="matrix(0.944611 -0.328192 0.610444 0.79206 779.781 299.922)" fill="#F8F8F8"/>
<rect width="0.924263" height="780.637" transform="matrix(0.938132 -0.346279 0.633522 0.773725 779.781 299.922)" fill="#F8F8F8"/>
<rect width="0.917081" height="788.585" transform="matrix(0.931212 -0.364479 0.655606 0.755103 779.781 299.922)" fill="#F8F8F8"/>
<rect width="0.909663" height="796.68" transform="matrix(0.923834 -0.382794 0.676715 0.736245 779.781 299.922)" fill="#F8F8F8"/>
<rect width="0.902023" height="804.896" transform="matrix(0.91598 -0.401224 0.69687 0.717197 779.789 299.922)" fill="#F8F8F8"/>
<rect width="0.894177" height="813.211" transform="matrix(0.907631 -0.41977 0.716096 0.698002 779.789 299.93)" fill="#F8F8F8"/>
<rect width="0.886142" height="821.601" transform="matrix(0.898765 -0.438431 0.734418 0.678697 779.789 299.93)" fill="#F8F8F8"/>
<rect width="0.877934" height="830.042" transform="matrix(0.889362 -0.457205 0.751864 0.659318 779.789 299.93)" fill="#F8F8F8"/>
<rect width="0.869571" height="838.511" transform="matrix(0.879398 -0.476088 0.768463 0.639894 779.789 299.93)" fill="#F8F8F8"/>
<rect width="0.861071" height="846.987" transform="matrix(0.868849 -0.495077 0.784243 0.620454 779.797 299.93)" fill="#F8F8F8"/>
<rect width="0.852453" height="855.449" transform="matrix(0.857691 -0.514165 0.799233 0.601021 779.797 299.938)" fill="#F8F8F8"/>
<rect width="0.843736" height="863.876" transform="matrix(0.845899 -0.533343 0.813463 0.581617 779.797 299.938)" fill="#F8F8F8"/>
<rect width="0.834939" height="872.247" transform="matrix(0.833445 -0.552603 0.826961 0.562259 779.797 299.938)" fill="#F8F8F8"/>
<rect width="0.826082" height="880.544" transform="matrix(0.820302 -0.571931 0.839756 0.542963 779.797 299.938)" fill="#F8F8F8"/>
<rect width="0.817186" height="888.748" transform="matrix(0.806441 -0.591314 0.851876 0.523743 779.805 299.938)" fill="#F8F8F8"/>
<rect width="0.808271" height="896.842" transform="matrix(0.791835 -0.610735 0.863348 0.504609 779.805 299.938)" fill="#F8F8F8"/>
<rect width="0.799359" height="904.807" transform="matrix(0.776453 -0.630175 0.874198 0.48557 779.805 299.945)" fill="#F8F8F8"/>
<rect width="0.790472" height="912.628" transform="matrix(0.760268 -0.64961 0.884451 0.466633 779.805 299.945)" fill="#F8F8F8"/>
<rect width="0.781632" height="920.288" transform="matrix(0.743249 -0.669015 0.894132 0.447804 779.812 299.945)" fill="#F8F8F8"/>
<rect width="0.772861" height="927.773" transform="matrix(0.725368 -0.688361 0.903264 0.429086 779.812 299.945)" fill="#F8F8F8"/>
<rect width="0.764182" height="935.068" transform="matrix(0.706598 -0.707616 0.911869 0.410482 779.812 299.945)" fill="#F8F8F8"/>
<rect width="0.755619" height="942.159" transform="matrix(0.68691 -0.726742 0.919968 0.391994 779.82 299.945)" fill="#F8F8F8"/>
<rect width="0.747194" height="949.033" transform="matrix(0.666281 -0.745701 0.927581 0.373622 779.82 299.953)" fill="#F8F8F8"/>
<rect width="0.738933" height="955.678" transform="matrix(0.644687 -0.764446 0.934728 0.355365 779.82 299.953)" fill="#F8F8F8"/>
<rect width="0.730857" height="962.081" transform="matrix(0.622108 -0.782931 0.941425 0.337222 779.828 299.953)" fill="#F8F8F8"/>
<rect width="0.722992" height="968.232" transform="matrix(0.598527 -0.801103 0.947691 0.31919 779.828 299.953)" fill="#F8F8F8"/>
<rect width="0.715361" height="974.12" transform="matrix(0.573929 -0.818905 0.95354 0.301267 779.828 299.953)" fill="#F8F8F8"/>
<rect width="0.707989" height="979.734" transform="matrix(0.548308 -0.836276 0.958987 0.283449 779.836 299.953)" fill="#F8F8F8"/>
<rect width="0.700899" height="985.066" transform="matrix(0.521659 -0.853154 0.964047 0.265733 779.836 299.953)" fill="#F8F8F8"/>
<rect width="0.694114" height="990.107" transform="matrix(0.493985 -0.869471 0.968731 0.248113 779.836 299.953)" fill="#F8F8F8"/>
<rect width="0.687657" height="994.848" transform="matrix(0.465294 -0.885156 0.973052 0.230585 779.844 299.953)" fill="#F8F8F8"/>
<rect width="0.681552" height="999.282" transform="matrix(0.435604 -0.900139 0.977021 0.213144 779.844 299.953)" fill="#F8F8F8"/>
<rect width="0.67582" height="1003.4" transform="matrix(0.404938 -0.914344 0.980647 0.195785 779.844 299.953)" fill="#F8F8F8"/>
<rect width="0.670482" height="1007.2" transform="matrix(0.373329 -0.927699 0.98394 0.178501 779.844 299.961)" fill="#F8F8F8"/>
<rect width="0.665559" height="1010.67" transform="matrix(0.340817 -0.94013 0.986908 0.161286 779.852 299.961)" fill="#F8F8F8"/>
<rect width="0.661068" height="1013.81" transform="matrix(0.307454 -0.951563 0.989558 0.144136 779.852 299.961)" fill="#F8F8F8"/>
<rect width="0.657029" height="1016.62" transform="matrix(0.273298 -0.961929 0.991897 0.127042 779.859 299.961)" fill="#F8F8F8"/>
<rect width="0.653457" height="1019.08" transform="matrix(0.238418 -0.971163 0.993932 0.11 779.859 299.961)" fill="#F8F8F8"/>
<rect width="0.650367" height="1021.2" transform="matrix(0.202889 -0.979202 0.995666 0.0930012 779.859 299.961)" fill="#F8F8F8"/>
<rect width="0.647772" height="1022.97" transform="matrix(0.166797 -0.985991 0.997105 0.0760404 779.867 299.961)" fill="#F8F8F8"/>
<rect width="0.645682" height="1024.39" transform="matrix(0.130233 -0.991483 0.998251 0.0591104 779.867 299.961)" fill="#F8F8F8"/>
<rect width="0.644106" height="1025.45" transform="matrix(0.0932953 -0.995638 0.999109 0.0422045 779.867 299.961)" fill="#F8F8F8"/>
<rect width="0.643983" height="1026.16" transform="matrix(0.0560866 -0.998426 0.99968 0.0253158 779.875 299.961)" fill="#F8F8F8"/>
<rect width="0.643457" height="1026.52" transform="matrix(0.0187138 -0.999825 0.999964 0.00843745 779.875 299.961)" fill="#F8F8F8"/>
<rect width="0.643457" height="1026.52" transform="matrix(-0.0187138 -0.999825 0.999964 -0.00843745 779.875 299.961)" fill="#F8F8F8"/>
<rect width="0.643983" height="1026.16" transform="matrix(-0.0560866 -0.998426 0.99968 -0.0253158 779.883 299.961)" fill="#F8F8F8"/>
<rect width="0.644106" height="1025.45" transform="matrix(-0.0932953 -0.995638 0.999109 -0.0422045 779.883 299.961)" fill="#F8F8F8"/>
<rect width="0.645682" height="1024.39" transform="matrix(-0.130233 -0.991483 0.998251 -0.0591104 779.883 299.961)" fill="#F8F8F8"/>
<rect width="0.647772" height="1022.97" transform="matrix(-0.166797 -0.985991 0.997105 -0.0760404 779.891 299.961)" fill="#F8F8F8"/>
<rect width="0.650367" height="1021.2" transform="matrix(-0.202889 -0.979202 0.995666 -0.0930012 779.891 299.961)" fill="#F8F8F8"/>
<rect width="0.653457" height="1019.08" transform="matrix(-0.238418 -0.971163 0.993932 -0.11 779.891 299.961)" fill="#F8F8F8"/>
<rect width="0.657029" height="1016.62" transform="matrix(-0.273298 -0.961929 0.991897 -0.127042 779.898 299.961)" fill="#F8F8F8"/>
<rect width="0.661068" height="1013.81" transform="matrix(-0.307454 -0.951563 0.989558 -0.144136 779.898 299.961)" fill="#F8F8F8"/>
<rect width="0.665559" height="1010.67" transform="matrix(-0.340817 -0.94013 0.986908 -0.161286 779.906 299.961)" fill="#F8F8F8"/>
<rect width="0.670482" height="1007.2" transform="matrix(-0.373329 -0.927699 0.98394 -0.178501 779.906 299.961)" fill="#F8F8F8"/>
<rect width="0.67582" height="1003.4" transform="matrix(-0.404938 -0.914344 0.980647 -0.195785 779.906 299.953)" fill="#F8F8F8"/>
<rect width="0.681552" height="999.282" transform="matrix(-0.435604 -0.900139 0.977021 -0.213144 779.906 299.953)" fill="#F8F8F8"/>
<rect width="0.687657" height="994.848" transform="matrix(-0.465294 -0.885156 0.973052 -0.230585 779.914 299.953)" fill="#F8F8F8"/>
<rect width="0.694114" height="990.107" transform="matrix(-0.493985 -0.869471 0.968731 -0.248113 779.914 299.953)" fill="#F8F8F8"/>
<rect width="0.700899" height="985.066" transform="matrix(-0.521659 -0.853154 0.964047 -0.265733 779.914 299.953)" fill="#F8F8F8"/>
<rect width="0.707989" height="979.734" transform="matrix(-0.548308 -0.836276 0.958987 -0.283449 779.922 299.953)" fill="#F8F8F8"/>
<rect width="0.715361" height="974.12" transform="matrix(-0.573929 -0.818905 0.95354 -0.301267 779.922 299.953)" fill="#F8F8F8"/>
<rect width="0.722992" height="968.232" transform="matrix(-0.598527 -0.801103 0.947691 -0.31919 779.922 299.953)" fill="#F8F8F8"/>
<rect width="0.730857" height="962.081" transform="matrix(-0.622108 -0.782931 0.941425 -0.337222 779.93 299.953)" fill="#F8F8F8"/>
<rect width="0.738933" height="955.678" transform="matrix(-0.644687 -0.764446 0.934728 -0.355365 779.93 299.953)" fill="#F8F8F8"/>
<rect width="0.747194" height="949.033" transform="matrix(-0.666281 -0.745701 0.927581 -0.373622 779.93 299.953)" fill="#F8F8F8"/>
<rect width="0.755619" height="942.159" transform="matrix(-0.68691 -0.726742 0.919968 -0.391994 779.938 299.945)" fill="#F8F8F8"/>
<rect width="0.764182" height="935.068" transform="matrix(-0.706598 -0.707616 0.911869 -0.410482 779.938 299.945)" fill="#F8F8F8"/>
<rect width="0.772861" height="927.773" transform="matrix(-0.725368 -0.688361 0.903264 -0.429086 779.938 299.945)" fill="#F8F8F8"/>
<rect width="0.781632" height="920.288" transform="matrix(-0.743249 -0.669015 0.894132 -0.447804 779.945 299.945)" fill="#F8F8F8"/>
<rect width="0.790472" height="912.628" transform="matrix(-0.760268 -0.64961 0.884451 -0.466633 779.945 299.945)" fill="#F8F8F8"/>
<rect width="0.799359" height="904.807" transform="matrix(-0.776453 -0.630175 0.874198 -0.48557 779.945 299.945)" fill="#F8F8F8"/>
<rect width="0.808271" height="896.842" transform="matrix(-0.791835 -0.610735 0.863348 -0.504609 779.945 299.938)" fill="#F8F8F8"/>
<rect width="0.817186" height="888.748" transform="matrix(-0.806441 -0.591314 0.851876 -0.523743 779.953 299.938)" fill="#F8F8F8"/>
<rect width="0.826082" height="880.544" transform="matrix(-0.820302 -0.571931 0.839756 -0.542963 779.953 299.938)" fill="#F8F8F8"/>
<rect width="0.834939" height="872.247" transform="matrix(-0.833445 -0.552603 0.826961 -0.562259 779.953 299.938)" fill="#F8F8F8"/>
<rect width="0.843736" height="863.876" transform="matrix(-0.845899 -0.533343 0.813463 -0.581617 779.953 299.938)" fill="#F8F8F8"/>
<rect width="0.852453" height="855.449" transform="matrix(-0.857691 -0.514165 0.799233 -0.601021 779.961 299.938)" fill="#F8F8F8"/>
<rect width="0.861071" height="846.987" transform="matrix(-0.868849 -0.495077 0.784243 -0.620454 779.961 299.93)" fill="#F8F8F8"/>
<rect width="0.869571" height="838.511" transform="matrix(-0.879398 -0.476088 0.768463 -0.639894 779.961 299.93)" fill="#F8F8F8"/>
<rect width="0.877934" height="830.042" transform="matrix(-0.889362 -0.457205 0.751864 -0.659318 779.961 299.93)" fill="#F8F8F8"/>
<rect width="0.886142" height="821.601" transform="matrix(-0.898765 -0.438431 0.734418 -0.678697 779.969 299.93)" fill="#F8F8F8"/>
<rect width="0.894177" height="813.211" transform="matrix(-0.907631 -0.41977 0.716096 -0.698002 779.969 299.93)" fill="#F8F8F8"/>
<rect width="0.902023" height="804.896" transform="matrix(-0.91598 -0.401224 0.69687 -0.717197 779.969 299.922)" fill="#F8F8F8"/>
<rect width="0.909663" height="796.68" transform="matrix(-0.923834 -0.382794 0.676715 -0.736245 779.969 299.922)" fill="#F8F8F8"/>
<rect width="0.917081" height="788.585" transform="matrix(-0.931212 -0.364479 0.655606 -0.755103 779.969 299.922)" fill="#F8F8F8"/>
<rect width="0.924263" height="780.637" transform="matrix(-0.938132 -0.346279 0.633522 -0.773725 779.969 299.922)" fill="#F8F8F8"/>
<rect width="0.931192" height="772.86" transform="matrix(-0.944611 -0.328192 0.610444 -0.79206 779.977 299.922)" fill="#F8F8F8"/>
<rect width="0.937855" height="765.281" transform="matrix(-0.950666 -0.310215 0.586356 -0.810054 779.977 299.922)" fill="#F8F8F8"/>
<rect width="0.944238" height="757.924" transform="matrix(-0.956313 -0.292345 0.561247 -0.827648 779.977 299.914)" fill="#F8F8F8"/>
<rect width="0.950329" height="750.814" transform="matrix(-0.961565 -0.274579 0.535112 -0.844781 779.977 299.914)" fill="#F8F8F8"/>
<rect width="0.956114" height="743.977" transform="matrix(-0.966435 -0.256911 0.50795 -0.861387 779.977 299.914)" fill="#F8F8F8"/>
<rect width="0.961583" height="737.439" transform="matrix(-0.970936 -0.239338 0.479766 -0.877397 779.977 299.906)" fill="#F8F8F8"/>
<rect width="0.966724" height="731.223" transform="matrix(-0.97508 -0.221854 0.450573 -0.89274 779.984 299.906)" fill="#F8F8F8"/>
<rect width="0.971527" height="725.353" transform="matrix(-0.978876 -0.204455 0.420391 -0.907343 779.984 299.906)" fill="#F8F8F8"/>
<rect width="0.975982" height="719.854" transform="matrix(-0.982334 -0.187134 0.389249 -0.921133 779.984 299.906)" fill="#F8F8F8"/>
<rect width="0.98008" height="714.749" transform="matrix(-0.985464 -0.169885 0.357183 -0.934035 779.984 299.906)" fill="#F8F8F8"/>
<rect width="0.983813" height="710.057" transform="matrix(-0.988272 -0.152704 0.324239 -0.945975 779.984 299.898)" fill="#F8F8F8"/>
<rect width="0.987174" height="705.801" transform="matrix(-0.990766 -0.135582 0.290471 -0.956884 779.984 299.898)" fill="#F8F8F8"/>
<rect width="0.990155" height="701.997" transform="matrix(-0.992952 -0.118515 0.255944 -0.966692 779.984 299.898)" fill="#F8F8F8"/>
<rect width="0.992751" height="698.665" transform="matrix(-0.994836 -0.101495 0.22073 -0.975335 779.984 299.898)" fill="#F8F8F8"/>
<rect width="0.994957" height="695.818" transform="matrix(-0.996422 -0.0845165 0.184908 -0.982756 779.984 299.891)" fill="#F8F8F8"/>
<rect width="0.996768" height="693.47" transform="matrix(-0.997714 -0.0675719 0.148568 -0.988902 779.984 299.891)" fill="#F8F8F8"/>
<rect width="0.99818" height="691.632" transform="matrix(-0.998716 -0.0506549 0.111805 -0.99373 779.984 299.891)" fill="#F8F8F8"/>
<rect width="0.99919" height="690.313" transform="matrix(-0.99943 -0.0337584 0.0747182 -0.997205 779.984 299.891)" fill="#F8F8F8"/>
<rect width="0.999797" height="689.519" transform="matrix(-0.999858 -0.0168758 0.0374139 -0.9993 779.984 299.883)" fill="#F8F8F8"/>
<rect x="780.367" y="300.641" width="1" height="690.642" transform="rotate(-180 780.367 300.641)" fill="#F8F8F8"/>
<rect width="0.999797" height="689.519" transform="matrix(-0.999858 0.0168758 -0.0374139 -0.9993 779.984 299.883)" fill="#F8F8F8"/>
<rect width="0.99919" height="690.313" transform="matrix(-0.99943 0.0337584 -0.0747182 -0.997205 779.984 299.883)" fill="#F8F8F8"/>
<rect width="0.99818" height="691.632" transform="matrix(-0.998716 0.0506549 -0.111805 -0.99373 779.984 299.875)" fill="#F8F8F8"/>
<rect width="0.996768" height="693.47" transform="matrix(-0.997714 0.0675719 -0.148568 -0.988902 779.984 299.875)" fill="#F8F8F8"/>
<rect width="0.994957" height="695.818" transform="matrix(-0.996422 0.0845165 -0.184908 -0.982756 779.984 299.875)" fill="#F8F8F8"/>
<rect width="0.992751" height="698.665" transform="matrix(-0.994836 0.101495 -0.22073 -0.975335 779.984 299.875)" fill="#F8F8F8"/>
<rect width="0.990155" height="701.997" transform="matrix(-0.992952 0.118515 -0.255944 -0.966692 779.984 299.875)" fill="#F8F8F8"/>
<rect width="0.987174" height="705.801" transform="matrix(-0.990766 0.135582 -0.290471 -0.956884 779.984 299.875)" fill="#F8F8F8"/>
<rect width="0.983813" height="710.057" transform="matrix(-0.988272 0.152704 -0.324239 -0.945975 779.984 299.867)" fill="#F8F8F8"/>
<rect width="0.98008" height="714.749" transform="matrix(-0.985464 0.169885 -0.357183 -0.934035 779.984 299.867)" fill="#F8F8F8"/>
<rect width="0.975982" height="719.854" transform="matrix(-0.982334 0.187134 -0.389249 -0.921133 779.984 299.867)" fill="#F8F8F8"/>
<rect width="0.971527" height="725.353" transform="matrix(-0.978876 0.204455 -0.420391 -0.907343 779.984 299.867)" fill="#F8F8F8"/>
<rect width="0.966724" height="731.223" transform="matrix(-0.97508 0.221854 -0.450573 -0.89274 779.977 299.859)" fill="#F8F8F8"/>
<rect width="0.961583" height="737.439" transform="matrix(-0.970936 0.239338 -0.479766 -0.877397 779.977 299.859)" fill="#F8F8F8"/>
<rect width="0.956114" height="743.977" transform="matrix(-0.966435 0.256911 -0.50795 -0.861387 779.977 299.859)" fill="#F8F8F8"/>
<rect width="0.950329" height="750.814" transform="matrix(-0.961565 0.274579 -0.535112 -0.844781 779.977 299.859)" fill="#F8F8F8"/>
<rect width="0.944238" height="757.924" transform="matrix(-0.956313 0.292345 -0.561247 -0.827648 779.977 299.852)" fill="#F8F8F8"/>
<rect width="0.937855" height="765.281" transform="matrix(-0.950666 0.310215 -0.586356 -0.810054 779.977 299.852)" fill="#F8F8F8"/>
<rect width="0.931192" height="772.86" transform="matrix(-0.944611 0.328192 -0.610444 -0.79206 779.977 299.852)" fill="#F8F8F8"/>
<rect width="0.924263" height="780.637" transform="matrix(-0.938132 0.346279 -0.633522 -0.773725 779.969 299.852)" fill="#F8F8F8"/>
<rect width="0.917081" height="788.585" transform="matrix(-0.931212 0.364479 -0.655606 -0.755103 779.969 299.852)" fill="#F8F8F8"/>
<rect width="0.909663" height="796.68" transform="matrix(-0.923834 0.382794 -0.676715 -0.736245 779.969 299.844)" fill="#F8F8F8"/>
<rect width="0.902023" height="804.896" transform="matrix(-0.91598 0.401224 -0.69687 -0.717197 779.969 299.844)" fill="#F8F8F8"/>
<rect width="0.894177" height="813.211" transform="matrix(-0.907631 0.41977 -0.716096 -0.698002 779.969 299.844)" fill="#F8F8F8"/>
<rect width="0.886142" height="821.601" transform="matrix(-0.898765 0.438431 -0.734418 -0.678697 779.969 299.844)" fill="#F8F8F8"/>
<rect width="0.877934" height="830.042" transform="matrix(-0.889362 0.457205 -0.751864 -0.659318 779.961 299.844)" fill="#F8F8F8"/>
<rect width="0.869571" height="838.511" transform="matrix(-0.879398 0.476088 -0.768463 -0.639894 779.961 299.836)" fill="#F8F8F8"/>
<rect width="0.861071" height="846.987" transform="matrix(-0.868849 0.495077 -0.784243 -0.620454 779.961 299.836)" fill="#F8F8F8"/>
<rect width="0.852453" height="855.449" transform="matrix(-0.857691 0.514165 -0.799233 -0.601021 779.961 299.836)" fill="#F8F8F8"/>
<rect width="0.843736" height="863.876" transform="matrix(-0.845899 0.533343 -0.813463 -0.581617 779.953 299.836)" fill="#F8F8F8"/>
<rect width="0.834939" height="872.247" transform="matrix(-0.833445 0.552603 -0.826961 -0.562259 779.953 299.836)" fill="#F8F8F8"/>
<rect width="0.826082" height="880.544" transform="matrix(-0.820302 0.571931 -0.839756 -0.542963 779.953 299.828)" fill="#F8F8F8"/>
<rect width="0.817186" height="888.748" transform="matrix(-0.806441 0.591314 -0.851876 -0.523743 779.953 299.828)" fill="#F8F8F8"/>
<rect width="0.808271" height="896.842" transform="matrix(-0.791835 0.610735 -0.863348 -0.504609 779.945 299.828)" fill="#F8F8F8"/>
<rect width="0.799359" height="904.807" transform="matrix(-0.776453 0.630175 -0.874198 -0.48557 779.945 299.828)" fill="#F8F8F8"/>
<rect width="0.790472" height="912.628" transform="matrix(-0.760268 0.64961 -0.884451 -0.466633 779.945 299.828)" fill="#F8F8F8"/>
<rect width="0.781632" height="920.288" transform="matrix(-0.743249 0.669015 -0.894132 -0.447804 779.945 299.828)" fill="#F8F8F8"/>
<rect width="0.772861" height="927.773" transform="matrix(-0.725368 0.688361 -0.903264 -0.429086 779.938 299.828)" fill="#F8F8F8"/>
<rect width="0.764182" height="935.068" transform="matrix(-0.706598 0.707616 -0.911869 -0.410482 779.938 299.828)" fill="#F8F8F8"/>
<rect width="0.755619" height="942.159" transform="matrix(-0.68691 0.726742 -0.919968 -0.391994 779.938 299.82)" fill="#F8F8F8"/>
<rect width="0.747194" height="949.033" transform="matrix(-0.666281 0.745701 -0.927581 -0.373622 779.93 299.82)" fill="#F8F8F8"/>
<rect width="0.738933" height="955.678" transform="matrix(-0.644687 0.764446 -0.934728 -0.355365 779.93 299.82)" fill="#F8F8F8"/>
<rect width="0.730857" height="962.081" transform="matrix(-0.622108 0.782931 -0.941425 -0.337222 779.93 299.82)" fill="#F8F8F8"/>
<rect width="0.722992" height="968.232" transform="matrix(-0.598527 0.801103 -0.947691 -0.31919 779.922 299.82)" fill="#F8F8F8"/>
<rect width="0.715361" height="974.12" transform="matrix(-0.573929 0.818905 -0.95354 -0.301267 779.922 299.82)" fill="#F8F8F8"/>
<rect width="0.707989" height="979.734" transform="matrix(-0.548308 0.836276 -0.958987 -0.283449 779.922 299.82)" fill="#F8F8F8"/>
<rect width="0.700899" height="985.066" transform="matrix(-0.521659 0.853154 -0.964047 -0.265733 779.914 299.82)" fill="#F8F8F8"/>
<rect width="0.694114" height="990.107" transform="matrix(-0.493985 0.869471 -0.968731 -0.248113 779.914 299.812)" fill="#F8F8F8"/>
<rect width="0.687657" height="994.848" transform="matrix(-0.465294 0.885156 -0.973052 -0.230585 779.914 299.812)" fill="#F8F8F8"/>
<rect width="0.681552" height="999.282" transform="matrix(-0.435604 0.900139 -0.977021 -0.213144 779.906 299.812)" fill="#F8F8F8"/>
<rect width="0.67582" height="1003.4" transform="matrix(-0.404938 0.914344 -0.980647 -0.195785 779.906 299.812)" fill="#F8F8F8"/>
<rect width="0.670482" height="1007.2" transform="matrix(-0.373329 0.927699 -0.98394 -0.178501 779.906 299.812)" fill="#F8F8F8"/>
<rect width="0.665559" height="1010.67" transform="matrix(-0.340817 0.94013 -0.986908 -0.161286 779.906 299.812)" fill="#F8F8F8"/>
<rect width="0.661068" height="1013.81" transform="matrix(-0.307454 0.951563 -0.989558 -0.144136 779.898 299.812)" fill="#F8F8F8"/>
<rect width="0.657029" height="1016.62" transform="matrix(-0.273298 0.961929 -0.991897 -0.127042 779.898 299.812)" fill="#F8F8F8"/>
<rect width="0.653457" height="1019.08" transform="matrix(-0.238418 0.971163 -0.993932 -0.11 779.891 299.812)" fill="#F8F8F8"/>
<rect width="0.650367" height="1021.2" transform="matrix(-0.202889 0.979202 -0.995666 -0.0930012 779.891 299.812)" fill="#F8F8F8"/>
<rect width="0.647772" height="1022.97" transform="matrix(-0.166797 0.985991 -0.997105 -0.0760404 779.891 299.812)" fill="#F8F8F8"/>
<rect width="0.645682" height="1024.39" transform="matrix(-0.130233 0.991483 -0.998251 -0.0591104 779.883 299.812)" fill="#F8F8F8"/>
<rect width="0.644106" height="1025.45" transform="matrix(-0.0932953 0.995638 -0.999109 -0.0422045 779.883 299.812)" fill="#F8F8F8"/>
<rect width="0.643983" height="1026.16" transform="matrix(-0.0560866 0.998426 -0.99968 -0.0253158 779.883 299.812)" fill="#F8F8F8"/>
<rect width="0.643457" height="1026.52" transform="matrix(-0.0187138 0.999825 -0.999964 -0.00843745 779.875 299.812)" fill="#F8F8F8"/>
<rect width="0.643457" height="1026.52" transform="matrix(0.0187138 0.999825 -0.999964 0.00843745 779.875 299.812)" fill="#F8F8F8"/>
<rect width="0.643983" height="1026.16" transform="matrix(0.0560866 0.998426 -0.99968 0.0253158 779.875 299.812)" fill="#F8F8F8"/>
<rect width="0.644106" height="1025.45" transform="matrix(0.0932953 0.995638 -0.999109 0.0422045 779.867 299.812)" fill="#F8F8F8"/>
<rect width="0.645682" height="1024.39" transform="matrix(0.130233 0.991483 -0.998251 0.0591104 779.867 299.812)" fill="#F8F8F8"/>
<rect width="0.647772" height="1022.97" transform="matrix(0.166797 0.985991 -0.997105 0.0760404 779.867 299.812)" fill="#F8F8F8"/>
<rect width="0.650367" height="1021.2" transform="matrix(0.202889 0.979202 -0.995666 0.0930012 779.859 299.812)" fill="#F8F8F8"/>
<rect width="0.653457" height="1019.08" transform="matrix(0.238418 0.971163 -0.993932 0.11 779.859 299.812)" fill="#F8F8F8"/>
<rect width="0.657029" height="1016.62" transform="matrix(0.273298 0.961929 -0.991897 0.127042 779.859 299.812)" fill="#F8F8F8"/>
<rect width="0.661068" height="1013.81" transform="matrix(0.307454 0.951563 -0.989558 0.144136 779.852 299.812)" fill="#F8F8F8"/>
<rect width="0.665559" height="1010.67" transform="matrix(0.340817 0.94013 -0.986908 0.161286 779.852 299.812)" fill="#F8F8F8"/>
<rect width="0.670482" height="1007.2" transform="matrix(0.373329 0.927699 -0.98394 0.178501 779.844 299.812)" fill="#F8F8F8"/>
<rect width="0.67582" height="1003.4" transform="matrix(0.404938 0.914344 -0.980647 0.195785 779.844 299.812)" fill="#F8F8F8"/>
<rect width="0.681552" height="999.282" transform="matrix(0.435604 0.900139 -0.977021 0.213144 779.844 299.812)" fill="#F8F8F8"/>
<rect width="0.689327" height="993.531" transform="matrix(0.472959 0.881084 -0.972021 0.234895 782.688 298.469)" fill="#F8F8F8"/>
<rect width="0.694114" height="990.107" transform="matrix(0.493985 0.869471 -0.968731 0.248113 779.836 299.812)" fill="#F8F8F8"/>
<rect width="0.728016" height="1023.18" transform="matrix(0.521659 0.853154 -0.964047 0.265733 779.828 299.805)" fill="#F8F8F8"/>
<rect width="0.751997" height="1040.63" transform="matrix(0.548308 0.836276 -0.958987 0.283449 779.82 299.797)" fill="#F8F8F8"/>
<rect width="0.792335" height="1078.94" transform="matrix(0.573929 0.818905 -0.95354 0.301267 779.805 299.789)" fill="#F8F8F8"/>
<rect width="0.722992" height="968.232" transform="matrix(0.598527 0.801103 -0.947691 0.31919 779.828 299.82)" fill="#F8F8F8"/>
<rect width="0.775716" height="1038.84" transform="matrix(0.598527 0.801103 -0.947691 0.31919 779.812 299.797)" fill="#F8F8F8"/>
<rect width="0.795426" height="1047.08" transform="matrix(0.622108 0.782931 -0.941425 0.337222 779.805 299.797)" fill="#F8F8F8"/>
<rect width="0.812962" height="1043.3" transform="matrix(0.653804 0.756664 -0.931934 0.362628 776.859 300.508)" fill="#F8F8F8"/>
<rect width="0.860951" height="1075.71" transform="matrix(0.684755 0.728773 -0.920772 0.390102 780.539 297.945)" fill="#F8F8F8"/>
<rect width="0.764697" height="1102.12" transform="matrix(0.707744 0.706469 -0.911386 0.411554 779.375 299.422)" fill="#F8F8F8"/>
<rect width="0.772861" height="1078.1" transform="matrix(0.725368 0.688361 -0.903264 0.429086 779.812 299.828)" fill="#F8F8F8"/>
<rect width="0.781632" height="1090.3" transform="matrix(0.743249 0.669015 -0.894132 0.447804 779.812 299.828)" fill="#F8F8F8"/>
<rect width="0.790472" height="1150.48" transform="matrix(0.760268 0.64961 -0.884451 0.466633 779.805 299.828)" fill="#F8F8F8"/>
<rect width="0.799359" height="1003.46" transform="matrix(0.776453 0.630175 -0.874198 0.48557 779.805 299.828)" fill="#F8F8F8"/>
<rect width="0.808271" height="987.614" transform="matrix(0.791835 0.610735 -0.863348 0.504609 779.805 299.828)" fill="#F8F8F8"/>
<rect width="0.817186" height="935.559" transform="matrix(0.806441 0.591314 -0.851876 0.523743 779.805 299.828)" fill="#F8F8F8"/>
<rect width="0.826082" height="907.227" transform="matrix(0.820302 0.571931 -0.839756 0.542963 779.797 299.828)" fill="#F8F8F8"/>
<rect width="0.834939" height="872.247" transform="matrix(0.833445 0.552603 -0.826961 0.562259 779.797 299.836)" fill="#F8F8F8"/>
<rect width="0.843736" height="863.876" transform="matrix(0.845899 0.533343 -0.813463 0.581617 779.797 299.836)" fill="#F8F8F8"/>
<rect width="0.852453" height="855.449" transform="matrix(0.857691 0.514165 -0.799233 0.601021 779.797 299.836)" fill="#F8F8F8"/>
<rect width="0.861071" height="846.987" transform="matrix(0.868849 0.495077 -0.784243 0.620454 779.797 299.836)" fill="#F8F8F8"/>
<rect width="0.869571" height="838.511" transform="matrix(0.879398 0.476088 -0.768463 0.639894 779.789 299.836)" fill="#F8F8F8"/>
<rect width="0.877934" height="830.042" transform="matrix(0.889362 0.457205 -0.751864 0.659318 779.789 299.844)" fill="#F8F8F8"/>
<rect width="0.886142" height="821.601" transform="matrix(0.898765 0.438431 -0.734418 0.678697 779.789 299.844)" fill="#F8F8F8"/>
<rect width="0.894177" height="813.211" transform="matrix(0.907631 0.41977 -0.716096 0.698002 779.789 299.844)" fill="#F8F8F8"/>
<rect width="0.902023" height="804.896" transform="matrix(0.91598 0.401224 -0.69687 0.717197 779.789 299.844)" fill="#F8F8F8"/>
<rect width="0.909663" height="796.68" transform="matrix(0.923834 0.382794 -0.676715 0.736245 779.781 299.844)" fill="#F8F8F8"/>
<rect width="0.917081" height="788.585" transform="matrix(0.931212 0.364479 -0.655606 0.755103 779.781 299.852)" fill="#F8F8F8"/>
<rect width="0.924263" height="780.637" transform="matrix(0.938132 0.346279 -0.633522 0.773725 779.781 299.852)" fill="#F8F8F8"/>
<rect width="0.931192" height="772.86" transform="matrix(0.944611 0.328192 -0.610444 0.79206 779.781 299.852)" fill="#F8F8F8"/>
<rect width="0.937855" height="765.281" transform="matrix(0.950666 0.310215 -0.586356 0.810054 779.781 299.852)" fill="#F8F8F8"/>
<rect width="0.944238" height="757.924" transform="matrix(0.956313 0.292345 -0.561247 0.827648 779.781 299.852)" fill="#F8F8F8"/>
<rect width="0.950329" height="750.814" transform="matrix(0.961565 0.274579 -0.535112 0.844781 779.773 299.859)" fill="#F8F8F8"/>
<rect width="0.956114" height="743.977" transform="matrix(0.966435 0.256911 -0.50795 0.861387 779.773 299.859)" fill="#F8F8F8"/>
<rect width="0.961583" height="737.439" transform="matrix(0.970936 0.239338 -0.479766 0.877397 779.773 299.859)" fill="#F8F8F8"/>
<rect width="0.966724" height="731.223" transform="matrix(0.97508 0.221854 -0.450573 0.89274 779.773 299.859)" fill="#F8F8F8"/>
<rect width="0.971527" height="725.353" transform="matrix(0.978876 0.204455 -0.420391 0.907343 779.773 299.867)" fill="#F8F8F8"/>
<rect width="0.975982" height="719.854" transform="matrix(0.982334 0.187134 -0.389249 0.921133 779.773 299.867)" fill="#F8F8F8"/>
<rect width="0.98008" height="714.749" transform="matrix(0.985464 0.169885 -0.357183 0.934035 779.773 299.867)" fill="#F8F8F8"/>
<rect width="0.983813" height="710.057" transform="matrix(0.988272 0.152704 -0.324239 0.945975 779.773 299.867)" fill="#F8F8F8"/>
<rect width="0.987174" height="705.801" transform="matrix(0.990766 0.135582 -0.290471 0.956884 779.766 299.875)" fill="#F8F8F8"/>
<rect width="0.990155" height="701.997" transform="matrix(0.992952 0.118515 -0.255944 0.966692 779.766 299.875)" fill="#F8F8F8"/>
<rect width="0.992751" height="698.665" transform="matrix(0.994836 0.101495 -0.22073 0.975335 779.766 299.875)" fill="#F8F8F8"/>
<rect width="0.994957" height="695.818" transform="matrix(0.996422 0.0845165 -0.184908 0.982756 779.766 299.875)" fill="#F8F8F8"/>
<rect width="0.996768" height="693.47" transform="matrix(0.997714 0.0675719 -0.148568 0.988902 779.766 299.875)" fill="#F8F8F8"/>
<rect width="0.99818" height="691.632" transform="matrix(0.998716 0.0506549 -0.111805 0.99373 779.766 299.875)" fill="#F8F8F8"/>
<rect width="0.99919" height="690.313" transform="matrix(0.99943 0.0337584 -0.0747182 0.997205 779.766 299.883)" fill="#F8F8F8"/>
<rect width="0.999797" height="689.519" transform="matrix(0.999858 0.0168758 -0.0374139 0.9993 779.766 299.883)" fill="#F8F8F8"/>
</svg>
